<svg xmlns="http://www.w3.org/2000/svg" xmlns:xlink="http://www.w3.org/1999/xlink" width="1030.539" height="335.708" viewBox="0 0 1030.539 335.708">
  <defs>
    <clipPath id="clip-path">
      <rect id="Rectangle_213" data-name="Rectangle 213" width="1011.948" height="232.302" transform="translate(0 0)" fill="none"/>
    </clipPath>
  </defs>
  <g id="Vector_Smart_Object" data-name="Vector Smart Object" transform="translate(30.017 -614.307)" opacity="0.769">
    <g id="Vector_Smart_Object-2" data-name="Vector Smart Object" transform="matrix(0.995, 0.103, -0.103, 0.995, -6, 614.307)">
      <g id="Group_426" data-name="Group 426">
        <g id="Group_425" data-name="Group 425" clip-path="url(#clip-path)">
          <path id="Path_436" data-name="Path 436" d="M80.33,19.044c42.554,13.016,75.213,40.89,106.092,71.81,29.726,29.765,59.172,61.118,97.87,79.224,79.778,37.326,173.506,18.4,251.645-13.605C623.249,120.71,705.274,66.9,799.7,51.2c46.3-7.7,95.846-4,136.173,21.861,33.41,21.426,51.52,55.363,59.066,93.511,4.288,21.669,5.756,43.685,6.913,65.729h10.1c-.32-6.249-.661-12.487-1.094-18.7-2.513-36.093-7.423-73.594-26.395-105.172-21.547-35.868-59.733-58.641-100.15-66.919-49.318-10.1-100.467-.474-147.556,15.177-45.372,15.081-88.328,36.354-131.319,57.057-82.05,39.51-172.989,79.608-266.328,62.945a197.574,197.574,0,0,1-62.383-21.973c-19.1-10.762-35.9-24.892-51.739-39.941-30.985-29.446-59.035-62.91-96.04-85.2A209.063,209.063,0,0,0,.2,1.139c-.067.006-.133.016-.2.024V11.509A199.719,199.719,0,0,1,80.33,19.044" fill="#e8524a"/>
        </g>
      </g>
    </g>
    <path id="Color_Overlay" data-name="Color Overlay" d="M966.459,948.97c1.128-22.046,1.945-44.1-.081-66.091-3.56-38.724-18.066-74.353-49.082-99.119-37.436-29.894-86.332-38.7-133.182-35.825-95.538,5.849-182.687,50.89-273.228,77.431-81.03,23.752-176.211,32.885-251.7-12.491-36.619-22.011-62.666-56.242-89.155-88.92-27.517-33.948-57.118-65.051-98.1-82.4a199.711,199.711,0,0,0-79.118-15.8l1.07-10.29c.066,0,.131-.005.2,0A209.074,209.074,0,0,1,119.2,657.067c34.5,25.993,58.941,62.177,86.716,94.671,14.2,16.606,29.452,32.4,47.333,45.077a197.558,197.558,0,0,0,59.776,28.306c91.116,26.227,185.712-4.252,271.408-35.065,44.9-16.147,89.825-32.863,136.514-43.171,48.454-10.7,100.325-14.983,148.334.164,39.344,12.413,74.971,39.013,92.7,76.918,15.6,33.37,16.612,71.178,15.38,107.338-.212,6.211-.517,12.44-.843,18.676l0,.035Z" fill="#f37d4f"/>
  </g>
</svg>
