<svg xmlns="http://www.w3.org/2000/svg" xmlns:xlink="http://www.w3.org/1999/xlink" width="283" height="98.001" viewBox="0 0 283 98.001">
  <defs>
    <clipPath id="clip-path">
      <rect id="Rectangle_209" data-name="Rectangle 209" width="283" height="98.001" transform="translate(0 -0.001)" fill="none"/>
    </clipPath>
  </defs>
  <g id="Vector_Smart_Object" data-name="Vector Smart Object" transform="translate(-12 -809.999)">
    <g id="Vector_Smart_Object-2" data-name="Vector Smart Object" transform="translate(12 810)">
      <g id="Group_418" data-name="Group 418">
        <g id="Group_417" data-name="Group 417" clip-path="url(#clip-path)">
          <path id="Path_314" data-name="Path 314" d="M4.8,2.395A2.4,2.4,0,1,1,2.4,0,2.4,2.4,0,0,1,4.8,2.395" fill="#fff"/>
          <path id="Path_315" data-name="Path 315" d="M39.578,2.395A2.4,2.4,0,1,1,37.176,0a2.4,2.4,0,0,1,2.4,2.395" fill="#e8524a"/>
          <path id="Path_316" data-name="Path 316" d="M74.354,2.395A2.4,2.4,0,1,1,71.952,0a2.4,2.4,0,0,1,2.4,2.395" fill="#e8524a"/>
          <path id="Path_317" data-name="Path 317" d="M109.128,2.395A2.4,2.4,0,1,1,106.725,0a2.4,2.4,0,0,1,2.4,2.395" fill="#fff"/>
          <path id="Path_318" data-name="Path 318" d="M143.9,2.395A2.4,2.4,0,1,1,141.5,0a2.4,2.4,0,0,1,2.4,2.395" fill="#e8524a"/>
          <path id="Path_319" data-name="Path 319" d="M178.677,2.395A2.4,2.4,0,1,1,176.273,0a2.4,2.4,0,0,1,2.4,2.395" fill="#e8524a"/>
          <path id="Path_320" data-name="Path 320" d="M213.451,2.395A2.4,2.4,0,1,1,211.048,0a2.4,2.4,0,0,1,2.4,2.395" fill="#e8524a"/>
          <path id="Path_321" data-name="Path 321" d="M248.224,2.395A2.4,2.4,0,1,1,245.822,0a2.4,2.4,0,0,1,2.4,2.395" fill="#e8524a"/>
          <path id="Path_322" data-name="Path 322" d="M283,2.395A2.4,2.4,0,1,1,280.6,0,2.4,2.4,0,0,1,283,2.395" fill="#e8524a"/>
          <path id="Path_323" data-name="Path 323" d="M4.8,25.7A2.4,2.4,0,1,1,2.4,23.3,2.4,2.4,0,0,1,4.8,25.7" fill="#e8524a"/>
          <path id="Path_324" data-name="Path 324" d="M39.578,25.7a2.4,2.4,0,1,1-2.4-2.395,2.4,2.4,0,0,1,2.4,2.395" fill="#e8524a"/>
          <path id="Path_325" data-name="Path 325" d="M74.354,25.7a2.4,2.4,0,1,1-2.4-2.395,2.4,2.4,0,0,1,2.4,2.395" fill="#e8524a"/>
          <path id="Path_326" data-name="Path 326" d="M109.128,25.7a2.4,2.4,0,1,1-2.4-2.395,2.4,2.4,0,0,1,2.4,2.395" fill="#e8524a"/>
          <path id="Path_327" data-name="Path 327" d="M143.9,25.7a2.4,2.4,0,1,1-2.4-2.395,2.4,2.4,0,0,1,2.4,2.395" fill="#e8524a"/>
          <path id="Path_328" data-name="Path 328" d="M178.677,25.7a2.4,2.4,0,1,1-2.4-2.395,2.4,2.4,0,0,1,2.4,2.395" fill="#fff"/>
          <path id="Path_329" data-name="Path 329" d="M213.451,25.7a2.4,2.4,0,1,1-2.4-2.395,2.4,2.4,0,0,1,2.4,2.395" fill="#e8524a"/>
          <path id="Path_330" data-name="Path 330" d="M248.224,25.7a2.4,2.4,0,1,1-2.4-2.395,2.4,2.4,0,0,1,2.4,2.395" fill="#e8524a"/>
          <path id="Path_331" data-name="Path 331" d="M283,25.7a2.4,2.4,0,1,1-2.4-2.395A2.4,2.4,0,0,1,283,25.7" fill="#fff"/>
          <path id="Path_332" data-name="Path 332" d="M4.8,49a2.4,2.4,0,1,1-2.4-2.395A2.4,2.4,0,0,1,4.8,49" fill="#e8524a"/>
          <path id="Path_333" data-name="Path 333" d="M39.578,49a2.4,2.4,0,1,1-2.4-2.395A2.4,2.4,0,0,1,39.578,49" fill="#fff"/>
          <path id="Path_334" data-name="Path 334" d="M74.354,49a2.4,2.4,0,1,1-2.4-2.395A2.4,2.4,0,0,1,74.354,49" fill="#e8524a"/>
          <path id="Path_335" data-name="Path 335" d="M109.128,49a2.4,2.4,0,1,1-2.4-2.395,2.4,2.4,0,0,1,2.4,2.395" fill="#e8524a"/>
          <path id="Path_336" data-name="Path 336" d="M143.9,49a2.4,2.4,0,1,1-2.4-2.395A2.4,2.4,0,0,1,143.9,49" fill="#e8524a"/>
          <path id="Path_337" data-name="Path 337" d="M178.677,49a2.4,2.4,0,1,1-2.4-2.395,2.4,2.4,0,0,1,2.4,2.395" fill="#e8524a"/>
          <path id="Path_338" data-name="Path 338" d="M213.451,49a2.4,2.4,0,1,1-2.4-2.395,2.4,2.4,0,0,1,2.4,2.395" fill="#fff"/>
          <path id="Path_339" data-name="Path 339" d="M248.224,49a2.4,2.4,0,1,1-2.4-2.395,2.4,2.4,0,0,1,2.4,2.395" fill="#e8524a"/>
          <path id="Path_340" data-name="Path 340" d="M283,49a2.4,2.4,0,1,1-2.4-2.395A2.4,2.4,0,0,1,283,49" fill="#e8524a"/>
          <path id="Path_341" data-name="Path 341" d="M4.8,72.3a2.4,2.4,0,1,1-2.4-2.4,2.4,2.4,0,0,1,2.4,2.4" fill="#e8524a"/>
          <path id="Path_342" data-name="Path 342" d="M39.578,72.3a2.4,2.4,0,1,1-2.4-2.4,2.4,2.4,0,0,1,2.4,2.4" fill="#e8524a"/>
          <path id="Path_343" data-name="Path 343" d="M74.354,72.3a2.4,2.4,0,1,1-2.4-2.4,2.4,2.4,0,0,1,2.4,2.4" fill="#fff"/>
          <path id="Path_344" data-name="Path 344" d="M109.128,72.3a2.4,2.4,0,1,1-2.4-2.4,2.4,2.4,0,0,1,2.4,2.4" fill="#e8524a"/>
          <path id="Path_345" data-name="Path 345" d="M143.9,72.3a2.4,2.4,0,1,1-2.4-2.4,2.4,2.4,0,0,1,2.4,2.4" fill="#fff"/>
          <path id="Path_346" data-name="Path 346" d="M178.677,72.3a2.4,2.4,0,1,1-2.4-2.4,2.4,2.4,0,0,1,2.4,2.4" fill="#e8524a"/>
          <path id="Path_347" data-name="Path 347" d="M213.451,72.3a2.4,2.4,0,1,1-2.4-2.4,2.4,2.4,0,0,1,2.4,2.4" fill="#e8524a"/>
          <path id="Path_348" data-name="Path 348" d="M248.224,72.3a2.4,2.4,0,1,1-2.4-2.4,2.4,2.4,0,0,1,2.4,2.4" fill="#e8524a"/>
          <path id="Path_349" data-name="Path 349" d="M283,72.3a2.4,2.4,0,1,1-2.4-2.4,2.4,2.4,0,0,1,2.4,2.4" fill="#e8524a"/>
          <path id="Path_350" data-name="Path 350" d="M4.8,95.606a2.4,2.4,0,1,1-2.4-2.4,2.4,2.4,0,0,1,2.4,2.4" fill="#e8524a"/>
          <path id="Path_351" data-name="Path 351" d="M39.578,95.606a2.4,2.4,0,1,1-2.4-2.4,2.4,2.4,0,0,1,2.4,2.4" fill="#e8524a"/>
          <path id="Path_352" data-name="Path 352" d="M74.354,95.606a2.4,2.4,0,1,1-2.4-2.4,2.4,2.4,0,0,1,2.4,2.4" fill="#e8524a"/>
          <path id="Path_353" data-name="Path 353" d="M109.128,95.606a2.4,2.4,0,1,1-2.4-2.4,2.4,2.4,0,0,1,2.4,2.4" fill="#e8524a"/>
          <path id="Path_354" data-name="Path 354" d="M143.9,95.606a2.4,2.4,0,1,1-2.4-2.4,2.4,2.4,0,0,1,2.4,2.4" fill="#e8524a"/>
          <path id="Path_355" data-name="Path 355" d="M178.677,95.606a2.4,2.4,0,1,1-2.4-2.4,2.4,2.4,0,0,1,2.4,2.4" fill="#e8524a"/>
          <path id="Path_356" data-name="Path 356" d="M213.451,95.606a2.4,2.4,0,1,1-2.4-2.4,2.4,2.4,0,0,1,2.4,2.4" fill="#e8524a"/>
          <path id="Path_357" data-name="Path 357" d="M248.224,95.606a2.4,2.4,0,1,1-2.4-2.4,2.4,2.4,0,0,1,2.4,2.4" fill="#fff"/>
          <path id="Path_358" data-name="Path 358" d="M283,95.606a2.4,2.4,0,1,1-2.4-2.4,2.4,2.4,0,0,1,2.4,2.4" fill="#fff"/>
        </g>
      </g>
    </g>
    <path id="Color_Overlay" data-name="Color Overlay" d="M292.53,908a2.4,2.4,0,1,1,.131,0Zm-34.773,0a2.4,2.4,0,1,1,.131,0Zm-34.774,0a2.4,2.4,0,1,1,.131,0Zm-34.775,0a2.4,2.4,0,1,1,.131,0Zm-34.774,0a2.4,2.4,0,1,1,.131,0Zm-34.773,0a2.4,2.4,0,1,1,.131,0Zm-34.774,0a2.4,2.4,0,1,1,.131,0ZM49.11,908a2.4,2.4,0,1,1,.131,0Zm-34.774,0a2.4,2.4,0,1,1,.131,0ZM290.2,882.3a2.4,2.4,0,1,1,2.4,2.395A2.4,2.4,0,0,1,290.2,882.3Zm-34.773,0a2.4,2.4,0,1,1,2.4,2.395A2.4,2.4,0,0,1,255.422,882.3Zm-34.776,0a2.4,2.4,0,1,1,2.4,2.395A2.4,2.4,0,0,1,220.646,882.3Zm-34.773,0a2.4,2.4,0,1,1,2.4,2.395A2.4,2.4,0,0,1,185.872,882.3Zm-34.774,0a2.4,2.4,0,1,1,2.4,2.395A2.4,2.4,0,0,1,151.1,882.3Zm-34.773,0a2.4,2.4,0,1,1,2.4,2.395A2.4,2.4,0,0,1,116.325,882.3Zm-34.776,0a2.4,2.4,0,1,1,2.4,2.395A2.4,2.4,0,0,1,81.549,882.3Zm-34.776,0a2.4,2.4,0,1,1,2.4,2.395A2.4,2.4,0,0,1,46.773,882.3ZM12,882.3a2.4,2.4,0,1,1,2.4,2.395A2.4,2.4,0,0,1,12,882.3ZM290.2,859a2.4,2.4,0,1,1,2.4,2.395A2.4,2.4,0,0,1,290.2,859Zm-34.773,0a2.4,2.4,0,1,1,2.4,2.395A2.4,2.4,0,0,1,255.422,859Zm-34.776,0a2.4,2.4,0,1,1,2.4,2.395A2.4,2.4,0,0,1,220.646,859Zm-34.773,0a2.4,2.4,0,1,1,2.4,2.395A2.4,2.4,0,0,1,185.872,859ZM151.1,859a2.4,2.4,0,1,1,2.4,2.395A2.4,2.4,0,0,1,151.1,859Zm-34.773,0a2.4,2.4,0,1,1,2.4,2.395A2.4,2.4,0,0,1,116.325,859Zm-34.776,0a2.4,2.4,0,1,1,2.4,2.395A2.4,2.4,0,0,1,81.549,859Zm-34.776,0a2.4,2.4,0,1,1,2.4,2.395A2.4,2.4,0,0,1,46.773,859ZM12,859a2.4,2.4,0,1,1,2.4,2.395A2.4,2.4,0,0,1,12,859Zm278.2-23.3a2.4,2.4,0,1,1,2.4,2.395A2.4,2.4,0,0,1,290.2,835.7Zm-34.773,0a2.4,2.4,0,1,1,2.4,2.395A2.4,2.4,0,0,1,255.422,835.7Zm-34.776,0a2.4,2.4,0,1,1,2.4,2.395A2.4,2.4,0,0,1,220.646,835.7Zm-34.773,0a2.4,2.4,0,1,1,2.4,2.395A2.4,2.4,0,0,1,185.872,835.7Zm-34.774,0a2.4,2.4,0,1,1,2.4,2.395A2.4,2.4,0,0,1,151.1,835.7Zm-34.773,0a2.4,2.4,0,1,1,2.4,2.395A2.4,2.4,0,0,1,116.325,835.7Zm-34.776,0a2.4,2.4,0,1,1,2.4,2.395A2.4,2.4,0,0,1,81.549,835.7Zm-34.776,0a2.4,2.4,0,1,1,2.4,2.395A2.4,2.4,0,0,1,46.773,835.7ZM12,835.7a2.4,2.4,0,1,1,2.4,2.395A2.4,2.4,0,0,1,12,835.7Zm278.2-23.3a2.4,2.4,0,1,1,2.4,2.4A2.4,2.4,0,0,1,290.2,812.395Zm-34.773,0a2.4,2.4,0,1,1,2.4,2.4A2.4,2.4,0,0,1,255.422,812.395Zm-34.776,0a2.4,2.4,0,1,1,2.4,2.4A2.4,2.4,0,0,1,220.646,812.395Zm-34.773,0a2.4,2.4,0,1,1,2.4,2.4A2.4,2.4,0,0,1,185.872,812.395Zm-34.774,0a2.4,2.4,0,1,1,2.4,2.4A2.4,2.4,0,0,1,151.1,812.395Zm-34.773,0a2.4,2.4,0,1,1,2.4,2.4A2.4,2.4,0,0,1,116.325,812.395Zm-34.776,0a2.4,2.4,0,1,1,2.4,2.4A2.4,2.4,0,0,1,81.549,812.395Zm-34.776,0a2.4,2.4,0,1,1,2.4,2.4A2.4,2.4,0,0,1,46.773,812.395Zm-34.773,0a2.4,2.4,0,1,1,2.4,2.4A2.4,2.4,0,0,1,12,812.395Z" fill="#ff5147"/>
  </g>
</svg>
