<svg xmlns="http://www.w3.org/2000/svg" xmlns:xlink="http://www.w3.org/1999/xlink" width="76.001" height="137" viewBox="0 0 76.001 137">
  <defs>
    <clipPath id="clip-path">
      <rect id="Rectangle_208" data-name="Rectangle 208" width="76.001" height="137" transform="translate(0 0)" fill="none"/>
    </clipPath>
  </defs>
  <g id="Vector_Smart_Object" data-name="Vector Smart Object" transform="translate(0 0)">
    <g id="Group_416" data-name="Group 416">
      <g id="Group_415" data-name="Group 415" clip-path="url(#clip-path)">
        <path id="Path_298" data-name="Path 298" d="M.143.735,1.916,0C7.588,2.222,9.868,7.8,7.19,12.673c-1.495.543-2.453-.619-3.084-1.437A21.428,21.428,0,0,1,.152,1.962,7.52,7.52,0,0,1,.143.735" fill="#30314d"/>
        <path id="Path_299" data-name="Path 299" d="M33.233,46.214A3.057,3.057,0,0,1,29.8,44.625a21.868,21.868,0,0,1-3.314-7.45,3.479,3.479,0,0,1-.01-.837,3.141,3.141,0,0,1,3.808-.767,7.038,7.038,0,0,1,4.242,4.058c.667,1.7.159,3.224-.4,4.769a18.272,18.272,0,0,1-.889,1.815" fill="#30314d"/>
        <path id="Path_300" data-name="Path 300" d="M30.146,104.85a2.269,2.269,0,0,1,3.243-.336c1.6,1.2,3.142,2.479,4.686,3.752a1.627,1.627,0,0,1,.438.784c.491,1.709-.963,5.127-2.624,6.179-1.913-.617-2.759-2.243-3.564-3.87-1.035-2.092-2.228-4.147-2.179-6.509" fill="#30314d"/>
        <path id="Path_301" data-name="Path 301" d="M22.457,89.123c-3.068-1.055-6.67-7.875-6.169-11.378a1.957,1.957,0,0,1,2.2-.02,19.007,19.007,0,0,1,5.461,4.546,2.307,2.307,0,0,1,.5,1.335,7.467,7.467,0,0,1-1.993,5.516" fill="#30314d"/>
        <path id="Path_302" data-name="Path 302" d="M3.2,55a2.951,2.951,0,0,1,4.082-.05c1.326,1.076,2.585,2.233,3.782,3.274.193,2.784.033,5.191-2.254,6.889C5.837,63.437,3.188,58.671,3.2,55" fill="#30314d"/>
        <path id="Path_303" data-name="Path 303" d="M0,88.049l1.851-.764a5.828,5.828,0,0,1,1.692.849,43.839,43.839,0,0,1,4.941,5.4c1.021,1.45.566,3.28-.273,4.859a8.011,8.011,0,0,1-.689.939,2.827,2.827,0,0,1-2.616-1.561,29.642,29.642,0,0,1-1.762-2.981C2.3,93.244,1.46,91.7.683,90.121A15.126,15.126,0,0,1,0,88.049" fill="#30314d"/>
        <path id="Path_304" data-name="Path 304" d="M7.11,22.306c.53-.382.92-.661,1.539-1.107q3,2.492,6.005,4.986c.985,3.073.494,5.213-1.637,6.893a5.606,5.606,0,0,1-3.077-2.6,27.074,27.074,0,0,1-2.83-8.174" fill="#30314d"/>
        <path id="Path_305" data-name="Path 305" d="M56.347,118.5a3.019,3.019,0,0,1-3.159-1.683,63.5,63.5,0,0,1-3.242-6.521,5.041,5.041,0,0,1-.036-1.919,2.164,2.164,0,0,1,2.517,0c1.5.946,2.967,1.933,4.455,2.892a2.835,2.835,0,0,1,1.2,2.721c-.149,1.59-.3,3.3-1.733,4.509" fill="#30314d"/>
        <path id="Path_306" data-name="Path 306" d="M33.071,30.343c-3.493.049-6.4-5.44-4.79-8.717,2.426-1.419,5.373-.106,6.909,1.924.25,2.514-1.108,4.627-2.12,6.792" fill="#30314d"/>
        <path id="Path_307" data-name="Path 307" d="M69.315,54.725c3.288-.748,4.54,1.884,6.56,2.642a8.366,8.366,0,0,1-1.848,7.016c-2.723-.043-3.473-2.22-4.276-4s-1.492-3.778-.436-5.662" fill="#30314d"/>
        <path id="Path_308" data-name="Path 308" d="M45.513,128.138c2.98-.79,5.2.584,7.356,1.9.6,2.674-.579,4.737-1.58,6.7a2.306,2.306,0,0,1-2.956-.78,12.635,12.635,0,0,1-2.953-6.927,4.9,4.9,0,0,1,.133-.9" fill="#30314d"/>
        <path id="Path_309" data-name="Path 309" d="M22.036,11.948c-1.655.345-2.387-.678-2.925-1.664a27.8,27.8,0,0,1-1.649-4.006c-.426-1.192-.771-2.414-1.092-3.637A19.374,19.374,0,0,1,16.05.633c1.092-.534,1.545.112,2.094.6,1.782,1.567,3.585,3.108,5.543,4.8.51,2.069-.505,3.988-1.65,5.919" fill="#30314d"/>
        <path id="Path_310" data-name="Path 310" d="M40.285,98.219c-2.946-.09-5.854-4.757-5.554-8.467a3.347,3.347,0,0,1,3.585-.142,15.859,15.859,0,0,1,1.9,1.1,3.379,3.379,0,0,1,1.419,4.539c-.387,1.01-.894,1.975-1.35,2.974" fill="#30314d"/>
        <path id="Path_311" data-name="Path 311" d="M73.813,110.831c-3.819-2.163-5.861-8.177-3.584-10.6,1.567,1.076,3.158,2.148,4.722,3.261a1.8,1.8,0,0,1,.459.768,6.57,6.57,0,0,1-1.6,6.571" fill="#30314d"/>
        <path id="Path_312" data-name="Path 312" d="M56.833,82.747C53.457,80.18,53.031,76.5,52.7,72.7l.937-.422c1.707,1.659,3.315,3.221,5.142,5,.521,2.5.03,4.281-1.949,5.476" fill="#30314d"/>
        <path id="Path_313" data-name="Path 313" d="M6.53,82.411C3.945,81.8.7,76.279,1.116,73.318a1.247,1.247,0,0,1,1.8.088c1.36,1.231,2.781,2.411,4.019,3.758.934,1.018.651,3.508-.409,5.247" fill="#30314d"/>
      </g>
    </g>
  </g>
</svg>
