<svg xmlns="http://www.w3.org/2000/svg" width="275.72" height="589.106" viewBox="0 0 275.72 589.106">
  <path id="Color_Overlay" data-name="Color Overlay" d="M1964.822,564.834c-37.285-34.82-76.056-68.242-111.1-105.361q-7.283-7.715-14.341-15.66c-35-39.47-66.5-84.388-80.987-135.7-12.561-44.476-10.751-94.558,12.625-135.28,21.2-36.938,57.925-60.772,95.043-79.561,38.838-19.662,80.344-34.9,116.438-59.6,2.237-1.53,4.449-3.117,6.629-4.739l7.723,8.181c-18.677,14.1-39.759,25.318-60.7,35.431-38.139,18.415-78.752,33.906-112.85,59.542-16.472,12.384-31.126,27.193-41.686,44.985-11.62,19.572-17.769,42.056-19.3,64.684-3.39,50.1,15.83,98.041,42.773,139.379,36.718,56.338,86.166,101.281,135.63,146.24,29.451,26.771,58.908,53.547,85.688,82.739l-8.4,7.924C2000.926,599.4,1982.894,581.713,1964.822,564.834Z" transform="translate(-1750.681 -28.932)" fill="#f37d4f"/>
</svg>
