<svg xmlns="http://www.w3.org/2000/svg" width="282.998" height="98" viewBox="0 0 282.998 98">
  <path id="Color_Overlay" data-name="Color Overlay" d="M579.53,1258a2.4,2.4,0,1,1,.131,0Zm-34.773,0a2.4,2.4,0,1,1,.131,0Zm-34.774,0a2.4,2.4,0,1,1,.131,0Zm-34.775,0a2.4,2.4,0,1,1,.131,0Zm-34.774,0a2.4,2.4,0,1,1,.131,0Zm-34.773,0a2.4,2.4,0,1,1,.131,0Zm-34.774,0a2.4,2.4,0,1,1,.131,0Zm-34.775,0a2.4,2.4,0,1,1,.131,0Zm-34.774,0a2.4,2.4,0,1,1,.131,0ZM577.2,1232.3a2.4,2.4,0,1,1,2.4,2.395A2.4,2.4,0,0,1,577.2,1232.3Zm-34.773,0a2.4,2.4,0,1,1,2.4,2.395A2.4,2.4,0,0,1,542.422,1232.3Zm-34.776,0a2.4,2.4,0,1,1,2.4,2.395A2.4,2.4,0,0,1,507.646,1232.3Zm-34.773,0a2.4,2.4,0,1,1,2.4,2.395A2.4,2.4,0,0,1,472.873,1232.3Zm-34.774,0a2.4,2.4,0,1,1,2.4,2.395A2.4,2.4,0,0,1,438.1,1232.3Zm-34.773,0a2.4,2.4,0,1,1,2.4,2.395A2.4,2.4,0,0,1,403.325,1232.3Zm-34.776,0a2.4,2.4,0,1,1,2.4,2.395A2.4,2.4,0,0,1,368.549,1232.3Zm-34.776,0a2.4,2.4,0,1,1,2.4,2.395A2.4,2.4,0,0,1,333.773,1232.3Zm-34.773,0a2.4,2.4,0,1,1,2.4,2.395A2.4,2.4,0,0,1,299,1232.3ZM577.2,1209a2.4,2.4,0,1,1,2.4,2.395A2.4,2.4,0,0,1,577.2,1209Zm-34.773,0a2.4,2.4,0,1,1,2.4,2.395A2.4,2.4,0,0,1,542.422,1209Zm-34.776,0a2.4,2.4,0,1,1,2.4,2.395A2.4,2.4,0,0,1,507.646,1209Zm-34.773,0a2.4,2.4,0,1,1,2.4,2.395A2.4,2.4,0,0,1,472.873,1209Zm-34.774,0a2.4,2.4,0,1,1,2.4,2.395A2.4,2.4,0,0,1,438.1,1209Zm-34.773,0a2.4,2.4,0,1,1,2.4,2.395A2.4,2.4,0,0,1,403.325,1209Zm-34.776,0a2.4,2.4,0,1,1,2.4,2.395A2.4,2.4,0,0,1,368.549,1209Zm-34.776,0a2.4,2.4,0,1,1,2.4,2.395A2.4,2.4,0,0,1,333.773,1209ZM299,1209a2.4,2.4,0,1,1,2.4,2.395A2.4,2.4,0,0,1,299,1209Zm278.2-23.3a2.4,2.4,0,1,1,2.4,2.395A2.4,2.4,0,0,1,577.2,1185.7Zm-34.773,0a2.4,2.4,0,1,1,2.4,2.395A2.4,2.4,0,0,1,542.422,1185.7Zm-34.776,0a2.4,2.4,0,1,1,2.4,2.395A2.4,2.4,0,0,1,507.646,1185.7Zm-34.773,0a2.4,2.4,0,1,1,2.4,2.395A2.4,2.4,0,0,1,472.873,1185.7Zm-34.774,0a2.4,2.4,0,1,1,2.4,2.395A2.4,2.4,0,0,1,438.1,1185.7Zm-34.773,0a2.4,2.4,0,1,1,2.4,2.395A2.4,2.4,0,0,1,403.325,1185.7Zm-34.776,0a2.4,2.4,0,1,1,2.4,2.395A2.4,2.4,0,0,1,368.549,1185.7Zm-34.776,0a2.4,2.4,0,1,1,2.4,2.395A2.4,2.4,0,0,1,333.773,1185.7Zm-34.773,0a2.4,2.4,0,1,1,2.4,2.395A2.4,2.4,0,0,1,299,1185.7Zm278.2-23.3a2.4,2.4,0,1,1,2.4,2.4A2.4,2.4,0,0,1,577.2,1162.4Zm-34.773,0a2.4,2.4,0,1,1,2.4,2.4A2.4,2.4,0,0,1,542.422,1162.4Zm-34.776,0a2.4,2.4,0,1,1,2.4,2.4A2.4,2.4,0,0,1,507.646,1162.4Zm-34.773,0a2.4,2.4,0,1,1,2.4,2.4A2.4,2.4,0,0,1,472.873,1162.4Zm-34.774,0a2.4,2.4,0,1,1,2.4,2.4A2.4,2.4,0,0,1,438.1,1162.4Zm-34.773,0a2.4,2.4,0,1,1,2.4,2.4A2.4,2.4,0,0,1,403.325,1162.4Zm-34.776,0a2.4,2.4,0,1,1,2.4,2.4A2.4,2.4,0,0,1,368.549,1162.4Zm-34.776,0a2.4,2.4,0,1,1,2.4,2.4A2.4,2.4,0,0,1,333.773,1162.4Zm-34.773,0a2.4,2.4,0,1,1,2.4,2.4A2.4,2.4,0,0,1,299,1162.4Z" transform="translate(-299 -1160)" fill="#3db166"/>
</svg>
