<svg xmlns="http://www.w3.org/2000/svg" width="97.706" height="92.905" viewBox="0 0 97.706 92.905">
  <path id="Color_Overlay" data-name="Color Overlay" d="M424.958,1624.663l-.18-.005a43.073,43.073,0,0,1-9.891-1.511,52.2,52.2,0,0,1-21.222-11.257c-12.688-11.349-17.035-25.386-12.346-41.834A60.972,60.972,0,0,1,389.4,1552.9c9.778-14.615,23.753-21.131,39.356-21.124l.075,0c12.767.638,22.82,3.805,31.485,10.691a44.045,44.045,0,0,1,16.851,35.948l-.008.237a46.778,46.778,0,0,1-27.215,40.418c-7.531,3.388-15.374,5.609-23.646,5.609Q425.63,1624.682,424.958,1624.663Zm31.875-61.059c1.354,1.13,2.689,2.247,4.124,3.448l1.733.054c-.031-.542.041-.844-.075-1.036-1-1.651-1.966-3.326-3.083-4.9-.293-.41-1.075-.477-1.465-.633A2.623,2.623,0,0,0,456.833,1563.6Zm-6.405-6.636c.178.02.357.04.533.045a1.307,1.307,0,0,0,1.375-.783,4.853,4.853,0,0,0-5.294-4.027c-.27.949-.571,2.01-.826,2.913a3.835,3.835,0,0,0,3.543,1.8h.051A5.515,5.515,0,0,1,450.428,1556.969Zm1.679-5.737c2.161,1.488,3.6,3.475,6.355,3.56.091,0,.184,0,.278,0-.072-.644.049-1.263-.206-1.575a16.426,16.426,0,0,0-5.223-4.369C452.894,1549.674,452.549,1550.359,452.107,1551.232Zm-22.736-7.879c.292.017.586.033.883.043a8.262,8.262,0,0,0,2.61-.273c-1.462-2-3.425-2.732-5.249-3.576-1.805,1.5-1.837,2.151-.19,3.779.222-.017.443-.024.664-.024C428.515,1543.3,428.941,1543.328,429.371,1543.353Z" transform="translate(-379.481 -1531.778)" fill="#f37d4f"/>
</svg>
