<svg xmlns="http://www.w3.org/2000/svg" width="221.756" height="210.861" viewBox="0 0 221.756 210.861">
  <path id="Color_Overlay" data-name="Color Overlay" d="M613.211,1747.567a97.761,97.761,0,0,1-22.451-3.429c-17.9-4.925-34.373-13.211-48.165-25.549-22.018-19.7-32.97-42.961-32.148-69.509l0-.131a104.64,104.64,0,0,1,4.122-25.308,138.328,138.328,0,0,1,18.347-38.932c22.2-33.185,53.93-47.971,89.36-47.945l.076,0c29,1.44,51.837,8.627,71.517,24.267a99.979,99.979,0,0,1,38.246,81.515l-.021.656a106.175,106.175,0,0,1-61.769,91.688c-17.089,7.688-34.887,12.732-53.659,12.732Q614.945,1747.624,613.211,1747.567ZM685.964,1609c3.073,2.566,6.1,5.1,9.36,7.826l3.933.122c-.073-1.23.092-1.916-.171-2.351-2.262-3.748-4.462-7.549-7-11.111-.665-.931-2.439-1.082-3.325-1.436C685.6,1604.008,685.573,1606.442,685.964,1609Zm-14.539-15.062c.406.046.815.091,1.214.1a2.969,2.969,0,0,0,3.118-1.775c-1.308-5.891-5.976-9.678-12.016-9.14-.611,2.155-1.294,4.562-1.876,6.612a8.7,8.7,0,0,0,8.043,4.093h.111A12.9,12.9,0,0,1,671.424,1593.936Zm3.815-13.018c4.9,3.375,8.174,7.886,14.421,8.08.208.006.418.009.632.005-.164-1.462.112-2.866-.466-3.574a37.309,37.309,0,0,0-11.856-9.915C677.025,1577.382,676.239,1578.937,675.239,1580.918Zm-51.6-17.883c.662.038,1.329.077,2,.1a18.647,18.647,0,0,0,5.919-.617c-3.318-4.54-7.775-6.2-11.912-8.114-4.1,3.393-4.17,4.879-.43,8.575.5-.038,1.008-.053,1.512-.053C621.7,1562.923,622.664,1562.979,623.64,1563.035Z" transform="translate(-510.404 -1536.764)" fill="#f37d4f"/>
</svg>
