<svg xmlns="http://www.w3.org/2000/svg" width="282.998" height="98" viewBox="0 0 282.998 98">
  <path id="Color_Overlay" data-name="Color Overlay" d="M999.53,2123a2.4,2.4,0,1,1,.131,0Zm-34.773,0a2.4,2.4,0,1,1,.131,0Zm-34.774,0a2.4,2.4,0,1,1,.131,0Zm-34.775,0a2.4,2.4,0,1,1,.131,0Zm-34.774,0a2.4,2.4,0,1,1,.131,0Zm-34.773,0a2.4,2.4,0,1,1,.131,0Zm-34.774,0a2.4,2.4,0,1,1,.131,0Zm-34.775,0a2.4,2.4,0,1,1,.131,0Zm-34.774,0a2.4,2.4,0,1,1,.131,0ZM997.2,2097.3a2.4,2.4,0,1,1,2.4,2.395A2.4,2.4,0,0,1,997.2,2097.3Zm-34.773,0a2.4,2.4,0,1,1,2.4,2.395A2.4,2.4,0,0,1,962.422,2097.3Zm-34.776,0a2.4,2.4,0,1,1,2.4,2.395A2.4,2.4,0,0,1,927.646,2097.3Zm-34.773,0a2.4,2.4,0,1,1,2.4,2.395A2.4,2.4,0,0,1,892.873,2097.3Zm-34.774,0a2.4,2.4,0,1,1,2.4,2.395A2.4,2.4,0,0,1,858.1,2097.3Zm-34.773,0a2.4,2.4,0,1,1,2.4,2.395A2.4,2.4,0,0,1,823.325,2097.3Zm-34.776,0a2.4,2.4,0,1,1,2.4,2.395A2.4,2.4,0,0,1,788.549,2097.3Zm-34.776,0a2.4,2.4,0,1,1,2.4,2.395A2.4,2.4,0,0,1,753.773,2097.3Zm-34.773,0a2.4,2.4,0,1,1,2.4,2.395A2.4,2.4,0,0,1,719,2097.3ZM997.2,2074a2.4,2.4,0,1,1,2.4,2.4A2.4,2.4,0,0,1,997.2,2074Zm-34.773,0a2.4,2.4,0,1,1,2.4,2.4A2.4,2.4,0,0,1,962.422,2074Zm-34.776,0a2.4,2.4,0,1,1,2.4,2.4A2.4,2.4,0,0,1,927.646,2074Zm-34.773,0a2.4,2.4,0,1,1,2.4,2.4A2.4,2.4,0,0,1,892.873,2074Zm-34.774,0a2.4,2.4,0,1,1,2.4,2.4A2.4,2.4,0,0,1,858.1,2074Zm-34.773,0a2.4,2.4,0,1,1,2.4,2.4A2.4,2.4,0,0,1,823.325,2074Zm-34.776,0a2.4,2.4,0,1,1,2.4,2.4A2.4,2.4,0,0,1,788.549,2074Zm-34.776,0a2.4,2.4,0,1,1,2.4,2.4A2.4,2.4,0,0,1,753.773,2074ZM719,2074a2.4,2.4,0,1,1,2.4,2.4A2.4,2.4,0,0,1,719,2074Zm278.2-23.3a2.4,2.4,0,1,1,2.4,2.395A2.4,2.4,0,0,1,997.2,2050.7Zm-34.773,0a2.4,2.4,0,1,1,2.4,2.395A2.4,2.4,0,0,1,962.422,2050.7Zm-34.776,0a2.4,2.4,0,1,1,2.4,2.395A2.4,2.4,0,0,1,927.646,2050.7Zm-34.773,0a2.4,2.4,0,1,1,2.4,2.395A2.4,2.4,0,0,1,892.873,2050.7Zm-34.774,0a2.4,2.4,0,1,1,2.4,2.395A2.4,2.4,0,0,1,858.1,2050.7Zm-34.773,0a2.4,2.4,0,1,1,2.4,2.395A2.4,2.4,0,0,1,823.325,2050.7Zm-34.776,0a2.4,2.4,0,1,1,2.4,2.395A2.4,2.4,0,0,1,788.549,2050.7Zm-34.776,0a2.4,2.4,0,1,1,2.4,2.395A2.4,2.4,0,0,1,753.773,2050.7Zm-34.773,0a2.4,2.4,0,1,1,2.4,2.395A2.4,2.4,0,0,1,719,2050.7Zm278.2-23.3a2.4,2.4,0,1,1,2.4,2.4A2.4,2.4,0,0,1,997.2,2027.395Zm-34.773,0a2.4,2.4,0,1,1,2.4,2.4A2.4,2.4,0,0,1,962.422,2027.395Zm-34.776,0a2.4,2.4,0,1,1,2.4,2.4A2.4,2.4,0,0,1,927.646,2027.395Zm-34.773,0a2.4,2.4,0,1,1,2.4,2.4A2.4,2.4,0,0,1,892.873,2027.395Zm-34.774,0a2.4,2.4,0,1,1,2.4,2.4A2.4,2.4,0,0,1,858.1,2027.395Zm-34.773,0a2.4,2.4,0,1,1,2.4,2.4A2.4,2.4,0,0,1,823.325,2027.395Zm-34.776,0a2.4,2.4,0,1,1,2.4,2.4A2.4,2.4,0,0,1,788.549,2027.395Zm-34.776,0a2.4,2.4,0,1,1,2.4,2.4A2.4,2.4,0,0,1,753.773,2027.395Zm-34.773,0a2.4,2.4,0,1,1,2.4,2.4A2.4,2.4,0,0,1,719,2027.395Z" transform="translate(-719 -2025)" fill="#ff5147"/>
</svg>
