<svg xmlns="http://www.w3.org/2000/svg" xmlns:xlink="http://www.w3.org/1999/xlink" width="156" height="154" viewBox="0 0 156 154">
  <defs>
    <clipPath id="clip-path">
      <rect id="Rectangle_248" data-name="Rectangle 248" width="156" height="154" fill="none"/>
    </clipPath>
  </defs>
  <g id="Group_20" data-name="Group 20" transform="translate(-1750 -1910)">
    <g id="Vector_Smart_Object" data-name="Vector Smart Object" transform="translate(1750 1910)">
      <g id="Group_497" data-name="Group 497">
        <g id="Group_496" data-name="Group 496" clip-path="url(#clip-path)">
          <path id="Path_810" data-name="Path 810" d="M1.881,153.914A4.965,4.965,0,0,1,0,151.049,3.134,3.134,0,0,1,2.053,148.5c1.379-.639,2.768-1.259,4.13-1.934a51.848,51.848,0,0,0,11.633-7.543c2.091-1.861,4.2-3.713,6.14-5.727a35.083,35.083,0,0,0,5.025-7.076c2.338-4.1,4.6-8.238,6.983-12.309a42.042,42.042,0,0,1,7.16-9.1,26.55,26.55,0,0,1,11.8-6.647c2.252-.594,4.508-1.173,6.78-1.676a32.763,32.763,0,0,1,3.841-.564c5.245-.519,10.439-1.245,15.293-3.47a34.544,34.544,0,0,0,8.8-5.381,61.969,61.969,0,0,0,5.782-5.61,70.966,70.966,0,0,0,4.845-6.668c2.393-3.528,4.594-7.187,7.082-10.645A41.664,41.664,0,0,1,121.228,51.9c4.034-2.226,8.233-4.076,12.45-5.912a52.812,52.812,0,0,0,10.1-5.435,16.184,16.184,0,0,0,4.389-4.987,11.268,11.268,0,0,0,.667-1.155,3.313,3.313,0,0,1,2.643-1.785c.577-.129,1.15-.276,1.8-.433a6.591,6.591,0,0,0,.694.416,1.9,1.9,0,0,1,1.272,2.07,20.871,20.871,0,0,1-2.114,7.084,40.772,40.772,0,0,1-2.771,4.791,18.911,18.911,0,0,1-4.956,4.629,110.587,110.587,0,0,1-12.573,7.178,71.139,71.139,0,0,0-10.958,6.824,38.984,38.984,0,0,0-8.4,9.381c-2.406,3.693-4.682,7.472-6.987,11.23a48.289,48.289,0,0,1-9.736,11.3,39.8,39.8,0,0,1-15.675,8.148c-2.773.762-5.582,1.412-8.4,1.974a44.315,44.315,0,0,1-4.875.514c-5.532.476-10.877,1.525-15.464,4.939a36.82,36.82,0,0,0-5.617,5.431c-2.908,3.32-5.01,7.159-7.228,10.928a73.513,73.513,0,0,1-7.225,10.67,39.26,39.26,0,0,1-7.274,6.44,43.567,43.567,0,0,1-12.834,6.554,27.481,27.481,0,0,1-10.273,1.229" fill="#b2d9d3"/>
          <path id="Path_811" data-name="Path 811" d="M153.517,0l.924.874a1.355,1.355,0,0,0,.274.091c1.072.136,1.18.292,1.258,1.3a12.576,12.576,0,0,1-.71,4.813,53.3,53.3,0,0,1-6.426,13.654,42.29,42.29,0,0,1-4.891,5.792,44.115,44.115,0,0,1-8.208,6.671,57.582,57.582,0,0,1-15.313,6.728,58.292,58.292,0,0,0-7.8,2.522,30.316,30.316,0,0,0-8.6,5.276c-1.978,1.819-3.994,3.617-5.8,5.6a44.22,44.22,0,0,0-5.638,7.861,122.432,122.432,0,0,1-6.809,11.328,33.29,33.29,0,0,1-6.523,6.717,37.751,37.751,0,0,1-5.9,3.98A28.737,28.737,0,0,1,66.3,85.5a28.029,28.029,0,0,1-7.751.677c-1.111-.063-2.219-.189-3.435-.3l-.386-.481a1.606,1.606,0,0,1,1.2-1.6c1.211-.457,2.435-.883,3.634-1.37a42.435,42.435,0,0,0,9.329-4.667,29.869,29.869,0,0,0,3.283-2.669A77.582,77.582,0,0,0,77.6,69.427a36.03,36.03,0,0,0,3.555-5.245c1.657-2.9,3.184-5.878,4.7-8.856a49.393,49.393,0,0,1,6.126-9.389c1.2-1.426,2.431-2.826,3.729-4.16a41.162,41.162,0,0,1,17.747-10.735,71.746,71.746,0,0,0,11.088-4.24,49.325,49.325,0,0,0,10.31-6.784,45.341,45.341,0,0,0,8.39-9.54,35.067,35.067,0,0,0,3.366-6.508c.094-.242.206-.477.309-.715A3.55,3.55,0,0,1,149.889.793,34.418,34.418,0,0,0,153.517,0" fill="#b2d9d3"/>
        </g>
      </g>
    </g>
  </g>
</svg>
