<svg xmlns="http://www.w3.org/2000/svg" xmlns:xlink="http://www.w3.org/1999/xlink" width="151.053" height="167.361" viewBox="0 0 151.053 167.361">
  <defs>
    <clipPath id="clip-path">
      <rect id="Rectangle_247" data-name="Rectangle 247" width="136.834" height="104.126" transform="translate(0 0)" fill="none"/>
    </clipPath>
  </defs>
  <g id="Vector_Smart_Object" data-name="Vector Smart Object" transform="matrix(0.409, -0.912, 0.913, 0.408, 0, 124.85)">
    <g id="Group_495" data-name="Group 495">
      <g id="Group_494" data-name="Group 494" clip-path="url(#clip-path)">
        <path id="Path_808" data-name="Path 808" d="M64.807,48.726c-1.1.743-2.114,1.337-3.023,2.066-3.814,3.056-7.928,5.677-11.983,8.383-3.243,2.163-6.482,4.337-9.777,6.419-1.355.857-2.854,1.484-4.287,2.218a1.842,1.842,0,0,1-2.607-.509c-.841-2.257-.291-4.558-.1-6.83.562-6.486,1.235-12.961,1.82-19.445.158-1.746.182-3.5.223-5.257a11.073,11.073,0,0,0-.246-1.686,17.43,17.43,0,0,0-1.93.618Q27.288,37.3,21.7,39.941C15.738,42.753,9.789,45.584,3.829,48.39c-1.661.781-2.114.768-3.263.092A13.79,13.79,0,0,1,.15,42.408c.823-6.97,1.741-13.929,2.668-20.885a32.254,32.254,0,0,1,.775-3.315,1.563,1.563,0,0,1,2.044.139,2.492,2.492,0,0,1,1.4,2.027c.036,1.63.13,3.263.065,4.89-.118,2.946-.333,5.889-.506,8.834q-.172,2.878-.344,5.757c-.014.213-.059.424-.119.845,1.577-.747,2.894-1.4,4.237-2,4.2-1.864,8.421-3.7,12.627-5.558,2.372-1.05,4.719-2.161,7.1-3.181a42.084,42.084,0,0,1,4.2-1.539,2.952,2.952,0,0,1,1.736.014,13.118,13.118,0,0,1,2.737,1.33,4.509,4.509,0,0,1,1.693,3.325,20.266,20.266,0,0,1,.22,4.6c-.423,6.569-.938,13.132-1.407,19.7A8.428,8.428,0,0,0,39.4,58.7c.735-.455,1.439-.862,2.112-1.312,4.155-2.782,8.325-5.544,12.446-8.375,2.165-1.487,4.213-3.143,6.373-4.64a38.247,38.247,0,0,1,3.931-2.327,2.887,2.887,0,0,1,2.728-.069c1.24.635,2.445,1.335,3.3,1.809,1.846,3.2,1.523,6.252,1.261,9.278-.378,4.339-.886,8.667-1.231,13.009-.312,3.95-.481,7.911-.726,12.054,1.607-.836,3.187-1.547,4.655-2.441,4.128-2.513,8.222-5.08,12.3-7.666A102.891,102.891,0,0,1,97.27,62.114a2.452,2.452,0,0,1,2.43.032c.774.432,1.558.845,2.331,1.278.145.081.337.206.37.345.3,1.216,1.156,2.259.953,3.641-.458,3.123-.883,6.253-1.226,9.391-.556,5.091-1.045,10.192-1.537,15.291-.076.793-.019,1.6-.025,2.661,1.3-.8,2.436-1.477,3.552-2.191,6.1-3.9,12.194-7.83,18.309-11.715,1.073-.681,2.246-1.2,3.371-1.8A2.181,2.181,0,0,1,127.777,79a5.728,5.728,0,0,1,1.8.935,13.551,13.551,0,0,1,1.481,2.134,9.728,9.728,0,0,1-2.795,2.813c-4.244,2.727-8.462,5.493-12.7,8.234-5.09,3.293-9.937,6.976-15.412,9.647a19.634,19.634,0,0,1-3.089,1.185c-1.793.525-2.707-.134-3.142-1.959a27.074,27.074,0,0,1-.51-9.072c.671-6.608,1.482-13.2,2.254-19.8.113-.968.328-1.924.537-3.125-.859.473-1.579.808-2.237,1.239-3.4,2.23-6.781,4.5-10.183,6.729a129.118,129.118,0,0,1-11.508,6.756c-2.076,1.072-4.117,2.215-6.231,3.206-1.784.836-3.143,1.15-3.735-1.763a24.286,24.286,0,0,1-.022-6.763q.494-6.628,1.152-13.242c.4-4.111.913-8.212,1.335-12.322.14-1.359.162-2.728.212-4.094a5.562,5.562,0,0,0-.176-1.015" fill="#30314d"/>
        <path id="Path_809" data-name="Path 809" d="M87.177,50.812c1.026-.417,1.816-.712,2.583-1.056,5.278-2.365,10.541-4.766,15.832-7.1,1.439-.635,2.962-1.073,4.442-1.617,2.086-.767,3.837,0,5.468,1.214,1.842,1.369,2.1,3.246,1.666,5.356q-.821,4.015-1.547,8.049c-.273,1.512-.473,3.04-.688,4.562a11.9,11.9,0,0,0-.023,1.288c1.758-1.089,3.384-2.019,4.928-3.069,3.3-2.24,6.583-4.5,9.812-6.833,1.874-1.355,3.672-1.646,5.6-.206a5.392,5.392,0,0,0,.839.42l.746,2.2a28.534,28.534,0,0,1-2.692,2.484c-4.2,3.013-8.409,6.018-12.7,8.9a57.279,57.279,0,0,1-10.126,5.579,2.875,2.875,0,0,1-2.9-.113A8.852,8.852,0,0,1,107.5,66.4a60.2,60.2,0,0,1,1.628-12.027c.421-1.913.864-3.821,1.288-5.734.062-.284.076-.578.145-1.133-1.773.7-3.422,1.255-4.99,1.984-5.705,2.648-11.377,5.375-17.08,8.027a40.6,40.6,0,0,1-4.727,1.873c-1.863.6-2.746-.128-3.169-1.989-.575-2.536-.061-5.033.041-7.539.154-3.754.477-7.5.66-11.254.09-1.881.067-3.77.017-5.654a19.136,19.136,0,0,0-.353-2.807,2.025,2.025,0,0,0-2.429-1.875,25.827,25.827,0,0,0-4.69,1.21A127.89,127.89,0,0,0,61.7,34.8c-1.148.559-2.34,1.03-3.512,1.539-2.184.949-4.361,1.917-6.56,2.833-.818.341-1.676.807-2.809-.193a6.1,6.1,0,0,1-.474-2.815c.3-4.425.66-8.844.929-13.271.115-1.874.061-3.759.085-5.834a7.777,7.777,0,0,0-1.3.152c-3.18.973-6.363,1.935-9.522,2.969q-7.23,2.365-14.427,4.833c-2.937,1.013-5.826,2.168-8.752,3.213a24.043,24.043,0,0,1-2.442.63,1.878,1.878,0,0,1-1.339-1.883,19.183,19.183,0,0,1,.171-3.441c.9-5.506,1.861-11,2.79-16.5.391-2.31.752-4.625,1.11-6.83a1.825,1.825,0,0,1,2.611.946,4.673,4.673,0,0,1,.286,1.5c-.019,2.952-.046,5.9-.14,8.853s-.269,5.892-.4,8.838a3.173,3.173,0,0,0,.115.6c1.243-.433,2.431-.857,3.626-1.262,6.773-2.3,13.542-4.622,20.33-6.876,1.981-.658,4.04-1.079,6.038-1.688,1.852-.563,3.335.2,4.782,1.161a4.7,4.7,0,0,1,2.092,4.038c.049,3.211-.006,6.423-.062,9.633-.03,1.694-.154,3.388-.245,5.279,1.937-.81,3.751-1.511,5.517-2.317A121.244,121.244,0,0,1,75.05,22.752a27.559,27.559,0,0,1,4.262-.839,3.88,3.88,0,0,1,1.875.226,20.235,20.235,0,0,1,3.3,1.613c1.615,1.013,2.131,2.778,2.431,4.483a42.007,42.007,0,0,1,.662,6.773c.042,3.938-.125,7.878-.219,11.817-.031,1.235-.114,2.468-.186,3.986" fill="#30314d"/>
      </g>
    </g>
  </g>
</svg>
