<svg xmlns="http://www.w3.org/2000/svg" xmlns:xlink="http://www.w3.org/1999/xlink" width="283" height="98.001" viewBox="0 0 283 98.001">
  <defs>
    <clipPath id="clip-path">
      <rect id="Rectangle_11" data-name="Rectangle 11" width="283" height="98.001" transform="translate(0 -0.001)" fill="none"/>
    </clipPath>
  </defs>
  <g id="Vector_Smart_Object_copy_2" data-name="Vector Smart Object copy 2" transform="translate(-299 -1159.999)">
    <g id="Vector_Smart_Object_copy_2-2" data-name="Vector Smart Object copy 2" transform="translate(299 1160)">
      <g id="Group_22" data-name="Group 22">
        <g id="Group_21" data-name="Group 21" clip-path="url(#clip-path)">
          <path id="Path_99" data-name="Path 99" d="M4.8,2.395A2.4,2.4,0,1,1,2.4,0,2.4,2.4,0,0,1,4.8,2.395" fill="#fff"/>
          <path id="Path_100" data-name="Path 100" d="M39.578,2.395A2.4,2.4,0,1,1,37.176,0a2.4,2.4,0,0,1,2.4,2.395" fill="#e8524a"/>
          <path id="Path_101" data-name="Path 101" d="M74.354,2.395A2.4,2.4,0,1,1,71.952,0a2.4,2.4,0,0,1,2.4,2.395" fill="#e8524a"/>
          <path id="Path_102" data-name="Path 102" d="M109.128,2.395A2.4,2.4,0,1,1,106.725,0a2.4,2.4,0,0,1,2.4,2.395" fill="#fff"/>
          <path id="Path_103" data-name="Path 103" d="M143.9,2.395A2.4,2.4,0,1,1,141.5,0a2.4,2.4,0,0,1,2.4,2.395" fill="#e8524a"/>
          <path id="Path_104" data-name="Path 104" d="M178.677,2.395A2.4,2.4,0,1,1,176.273,0a2.4,2.4,0,0,1,2.4,2.395" fill="#e8524a"/>
          <path id="Path_105" data-name="Path 105" d="M213.451,2.395A2.4,2.4,0,1,1,211.048,0a2.4,2.4,0,0,1,2.4,2.395" fill="#e8524a"/>
          <path id="Path_106" data-name="Path 106" d="M248.224,2.395A2.4,2.4,0,1,1,245.822,0a2.4,2.4,0,0,1,2.4,2.395" fill="#e8524a"/>
          <path id="Path_107" data-name="Path 107" d="M283,2.395A2.4,2.4,0,1,1,280.6,0,2.4,2.4,0,0,1,283,2.395" fill="#e8524a"/>
          <path id="Path_108" data-name="Path 108" d="M4.8,25.7A2.4,2.4,0,1,1,2.4,23.3,2.4,2.4,0,0,1,4.8,25.7" fill="#e8524a"/>
          <path id="Path_109" data-name="Path 109" d="M39.578,25.7a2.4,2.4,0,1,1-2.4-2.395,2.4,2.4,0,0,1,2.4,2.395" fill="#e8524a"/>
          <path id="Path_110" data-name="Path 110" d="M74.354,25.7a2.4,2.4,0,1,1-2.4-2.395,2.4,2.4,0,0,1,2.4,2.395" fill="#e8524a"/>
          <path id="Path_111" data-name="Path 111" d="M109.128,25.7a2.4,2.4,0,1,1-2.4-2.395,2.4,2.4,0,0,1,2.4,2.395" fill="#e8524a"/>
          <path id="Path_112" data-name="Path 112" d="M143.9,25.7a2.4,2.4,0,1,1-2.4-2.395,2.4,2.4,0,0,1,2.4,2.395" fill="#e8524a"/>
          <path id="Path_113" data-name="Path 113" d="M178.677,25.7a2.4,2.4,0,1,1-2.4-2.395,2.4,2.4,0,0,1,2.4,2.395" fill="#fff"/>
          <path id="Path_114" data-name="Path 114" d="M213.451,25.7a2.4,2.4,0,1,1-2.4-2.395,2.4,2.4,0,0,1,2.4,2.395" fill="#e8524a"/>
          <path id="Path_115" data-name="Path 115" d="M248.224,25.7a2.4,2.4,0,1,1-2.4-2.395,2.4,2.4,0,0,1,2.4,2.395" fill="#e8524a"/>
          <path id="Path_116" data-name="Path 116" d="M283,25.7a2.4,2.4,0,1,1-2.4-2.395A2.4,2.4,0,0,1,283,25.7" fill="#fff"/>
          <path id="Path_117" data-name="Path 117" d="M4.8,49a2.4,2.4,0,1,1-2.4-2.395A2.4,2.4,0,0,1,4.8,49" fill="#e8524a"/>
          <path id="Path_118" data-name="Path 118" d="M39.578,49a2.4,2.4,0,1,1-2.4-2.395A2.4,2.4,0,0,1,39.578,49" fill="#fff"/>
          <path id="Path_119" data-name="Path 119" d="M74.354,49a2.4,2.4,0,1,1-2.4-2.395A2.4,2.4,0,0,1,74.354,49" fill="#e8524a"/>
          <path id="Path_120" data-name="Path 120" d="M109.128,49a2.4,2.4,0,1,1-2.4-2.395,2.4,2.4,0,0,1,2.4,2.395" fill="#e8524a"/>
          <path id="Path_121" data-name="Path 121" d="M143.9,49a2.4,2.4,0,1,1-2.4-2.395A2.4,2.4,0,0,1,143.9,49" fill="#e8524a"/>
          <path id="Path_122" data-name="Path 122" d="M178.677,49a2.4,2.4,0,1,1-2.4-2.395,2.4,2.4,0,0,1,2.4,2.395" fill="#e8524a"/>
          <path id="Path_123" data-name="Path 123" d="M213.451,49a2.4,2.4,0,1,1-2.4-2.395,2.4,2.4,0,0,1,2.4,2.395" fill="#fff"/>
          <path id="Path_124" data-name="Path 124" d="M248.224,49a2.4,2.4,0,1,1-2.4-2.395,2.4,2.4,0,0,1,2.4,2.395" fill="#e8524a"/>
          <path id="Path_125" data-name="Path 125" d="M283,49a2.4,2.4,0,1,1-2.4-2.395A2.4,2.4,0,0,1,283,49" fill="#e8524a"/>
          <path id="Path_126" data-name="Path 126" d="M4.8,72.3a2.4,2.4,0,1,1-2.4-2.4,2.4,2.4,0,0,1,2.4,2.4" fill="#e8524a"/>
          <path id="Path_127" data-name="Path 127" d="M39.578,72.3a2.4,2.4,0,1,1-2.4-2.4,2.4,2.4,0,0,1,2.4,2.4" fill="#e8524a"/>
          <path id="Path_128" data-name="Path 128" d="M74.354,72.3a2.4,2.4,0,1,1-2.4-2.4,2.4,2.4,0,0,1,2.4,2.4" fill="#fff"/>
          <path id="Path_129" data-name="Path 129" d="M109.128,72.3a2.4,2.4,0,1,1-2.4-2.4,2.4,2.4,0,0,1,2.4,2.4" fill="#e8524a"/>
          <path id="Path_130" data-name="Path 130" d="M143.9,72.3a2.4,2.4,0,1,1-2.4-2.4,2.4,2.4,0,0,1,2.4,2.4" fill="#fff"/>
          <path id="Path_131" data-name="Path 131" d="M178.677,72.3a2.4,2.4,0,1,1-2.4-2.4,2.4,2.4,0,0,1,2.4,2.4" fill="#e8524a"/>
          <path id="Path_132" data-name="Path 132" d="M213.451,72.3a2.4,2.4,0,1,1-2.4-2.4,2.4,2.4,0,0,1,2.4,2.4" fill="#e8524a"/>
          <path id="Path_133" data-name="Path 133" d="M248.224,72.3a2.4,2.4,0,1,1-2.4-2.4,2.4,2.4,0,0,1,2.4,2.4" fill="#e8524a"/>
          <path id="Path_134" data-name="Path 134" d="M283,72.3a2.4,2.4,0,1,1-2.4-2.4,2.4,2.4,0,0,1,2.4,2.4" fill="#e8524a"/>
          <path id="Path_135" data-name="Path 135" d="M4.8,95.606a2.4,2.4,0,1,1-2.4-2.4,2.4,2.4,0,0,1,2.4,2.4" fill="#e8524a"/>
          <path id="Path_136" data-name="Path 136" d="M39.578,95.606a2.4,2.4,0,1,1-2.4-2.4,2.4,2.4,0,0,1,2.4,2.4" fill="#e8524a"/>
          <path id="Path_137" data-name="Path 137" d="M74.354,95.606a2.4,2.4,0,1,1-2.4-2.4,2.4,2.4,0,0,1,2.4,2.4" fill="#e8524a"/>
          <path id="Path_138" data-name="Path 138" d="M109.128,95.606a2.4,2.4,0,1,1-2.4-2.4,2.4,2.4,0,0,1,2.4,2.4" fill="#e8524a"/>
          <path id="Path_139" data-name="Path 139" d="M143.9,95.606a2.4,2.4,0,1,1-2.4-2.4,2.4,2.4,0,0,1,2.4,2.4" fill="#e8524a"/>
          <path id="Path_140" data-name="Path 140" d="M178.677,95.606a2.4,2.4,0,1,1-2.4-2.4,2.4,2.4,0,0,1,2.4,2.4" fill="#e8524a"/>
          <path id="Path_141" data-name="Path 141" d="M213.451,95.606a2.4,2.4,0,1,1-2.4-2.4,2.4,2.4,0,0,1,2.4,2.4" fill="#e8524a"/>
          <path id="Path_142" data-name="Path 142" d="M248.224,95.606a2.4,2.4,0,1,1-2.4-2.4,2.4,2.4,0,0,1,2.4,2.4" fill="#fff"/>
          <path id="Path_143" data-name="Path 143" d="M283,95.606a2.4,2.4,0,1,1-2.4-2.4,2.4,2.4,0,0,1,2.4,2.4" fill="#fff"/>
        </g>
      </g>
    </g>
    <path id="Color_Overlay" data-name="Color Overlay" d="M579.53,1258a2.4,2.4,0,1,1,.131,0Zm-34.773,0a2.4,2.4,0,1,1,.131,0Zm-34.774,0a2.4,2.4,0,1,1,.131,0Zm-34.775,0a2.4,2.4,0,1,1,.131,0Zm-34.774,0a2.4,2.4,0,1,1,.131,0Zm-34.773,0a2.4,2.4,0,1,1,.131,0Zm-34.774,0a2.4,2.4,0,1,1,.131,0Zm-34.775,0a2.4,2.4,0,1,1,.131,0Zm-34.774,0a2.4,2.4,0,1,1,.131,0ZM577.2,1232.3a2.4,2.4,0,1,1,2.4,2.395A2.4,2.4,0,0,1,577.2,1232.3Zm-34.773,0a2.4,2.4,0,1,1,2.4,2.395A2.4,2.4,0,0,1,542.422,1232.3Zm-34.776,0a2.4,2.4,0,1,1,2.4,2.395A2.4,2.4,0,0,1,507.646,1232.3Zm-34.773,0a2.4,2.4,0,1,1,2.4,2.395A2.4,2.4,0,0,1,472.873,1232.3Zm-34.774,0a2.4,2.4,0,1,1,2.4,2.395A2.4,2.4,0,0,1,438.1,1232.3Zm-34.773,0a2.4,2.4,0,1,1,2.4,2.395A2.4,2.4,0,0,1,403.325,1232.3Zm-34.776,0a2.4,2.4,0,1,1,2.4,2.395A2.4,2.4,0,0,1,368.549,1232.3Zm-34.776,0a2.4,2.4,0,1,1,2.4,2.395A2.4,2.4,0,0,1,333.773,1232.3Zm-34.773,0a2.4,2.4,0,1,1,2.4,2.395A2.4,2.4,0,0,1,299,1232.3ZM577.2,1209a2.4,2.4,0,1,1,2.4,2.395A2.4,2.4,0,0,1,577.2,1209Zm-34.773,0a2.4,2.4,0,1,1,2.4,2.395A2.4,2.4,0,0,1,542.422,1209Zm-34.776,0a2.4,2.4,0,1,1,2.4,2.395A2.4,2.4,0,0,1,507.646,1209Zm-34.773,0a2.4,2.4,0,1,1,2.4,2.395A2.4,2.4,0,0,1,472.873,1209Zm-34.774,0a2.4,2.4,0,1,1,2.4,2.395A2.4,2.4,0,0,1,438.1,1209Zm-34.773,0a2.4,2.4,0,1,1,2.4,2.395A2.4,2.4,0,0,1,403.325,1209Zm-34.776,0a2.4,2.4,0,1,1,2.4,2.395A2.4,2.4,0,0,1,368.549,1209Zm-34.776,0a2.4,2.4,0,1,1,2.4,2.395A2.4,2.4,0,0,1,333.773,1209ZM299,1209a2.4,2.4,0,1,1,2.4,2.395A2.4,2.4,0,0,1,299,1209Zm278.2-23.3a2.4,2.4,0,1,1,2.4,2.395A2.4,2.4,0,0,1,577.2,1185.7Zm-34.773,0a2.4,2.4,0,1,1,2.4,2.395A2.4,2.4,0,0,1,542.422,1185.7Zm-34.776,0a2.4,2.4,0,1,1,2.4,2.395A2.4,2.4,0,0,1,507.646,1185.7Zm-34.773,0a2.4,2.4,0,1,1,2.4,2.395A2.4,2.4,0,0,1,472.873,1185.7Zm-34.774,0a2.4,2.4,0,1,1,2.4,2.395A2.4,2.4,0,0,1,438.1,1185.7Zm-34.773,0a2.4,2.4,0,1,1,2.4,2.395A2.4,2.4,0,0,1,403.325,1185.7Zm-34.776,0a2.4,2.4,0,1,1,2.4,2.395A2.4,2.4,0,0,1,368.549,1185.7Zm-34.776,0a2.4,2.4,0,1,1,2.4,2.395A2.4,2.4,0,0,1,333.773,1185.7Zm-34.773,0a2.4,2.4,0,1,1,2.4,2.395A2.4,2.4,0,0,1,299,1185.7Zm278.2-23.3a2.4,2.4,0,1,1,2.4,2.4A2.4,2.4,0,0,1,577.2,1162.4Zm-34.773,0a2.4,2.4,0,1,1,2.4,2.4A2.4,2.4,0,0,1,542.422,1162.4Zm-34.776,0a2.4,2.4,0,1,1,2.4,2.4A2.4,2.4,0,0,1,507.646,1162.4Zm-34.773,0a2.4,2.4,0,1,1,2.4,2.4A2.4,2.4,0,0,1,472.873,1162.4Zm-34.774,0a2.4,2.4,0,1,1,2.4,2.4A2.4,2.4,0,0,1,438.1,1162.4Zm-34.773,0a2.4,2.4,0,1,1,2.4,2.4A2.4,2.4,0,0,1,403.325,1162.4Zm-34.776,0a2.4,2.4,0,1,1,2.4,2.4A2.4,2.4,0,0,1,368.549,1162.4Zm-34.776,0a2.4,2.4,0,1,1,2.4,2.4A2.4,2.4,0,0,1,333.773,1162.4Zm-34.773,0a2.4,2.4,0,1,1,2.4,2.4A2.4,2.4,0,0,1,299,1162.4Z" fill="#3db166"/>
  </g>
</svg>
