<svg xmlns="http://www.w3.org/2000/svg" width="446.44" height="298.353" viewBox="0 0 446.44 298.353">
  <path id="Color_Overlay" data-name="Color Overlay" d="M1559.5,3021.169c.022-.025.041-.051.064-.076a103.678,103.678,0,0,1,56.476-32.939c20.976-4.325,42.448-1.567,63.639-1.258,10.831.157,21.705-.347,32.283-2.849a97.981,97.981,0,0,0,30.118-12.974c39.614-25.323,59.266-70.519,75.877-112.512,8.7-22,17.2-44.2,28.663-64.958,11.9-21.541,27.3-42.251,48.661-55.158,17.51-10.579,39.082-15.124,58.993-9.3,17.529,5.125,31.929,17.138,44.98,29.443,2.243,2.114,4.46,4.269,6.673,6.433l.012.012-3.68,3.4c-7.834-7.643-15.771-15.17-24.62-21.624-15.576-11.362-33.586-17.636-52.964-14.207-23.389,4.14-42.685,19.455-56.967,37.834-29.126,37.478-40.919,84.674-60.709,127.07-17.71,37.943-45.5,76.363-87.117,89.6-20.188,6.418-41.459,4.9-62.3,4.051-21.648-.881-42.92-.053-62.8,9.517a99.053,99.053,0,0,0-31.8,24.272Z" transform="translate(-1559.499 -2726.585)" fill="#f37d4f"/>
</svg>
