<svg xmlns="http://www.w3.org/2000/svg" width="282.998" height="98" viewBox="0 0 282.998 98">
  <path id="Color_Overlay" data-name="Color Overlay" d="M412.53,5258a2.4,2.4,0,1,1,.132,0Zm-34.774,0a2.4,2.4,0,1,1,.132,0Zm-34.774,0a2.4,2.4,0,1,1,.132,0Zm-34.775,0a2.4,2.4,0,1,1,.132,0Zm-34.774,0a2.4,2.4,0,1,1,.131,0Zm-34.774,0a2.4,2.4,0,1,1,.131,0Zm-34.774,0a2.4,2.4,0,1,1,.131,0Zm-34.776,0a2.4,2.4,0,1,1,.132,0Zm-34.774,0a2.4,2.4,0,1,1,.132,0ZM410.2,5232.3a2.4,2.4,0,1,1,2.4,2.4A2.4,2.4,0,0,1,410.2,5232.3Zm-34.774,0a2.4,2.4,0,1,1,2.4,2.4A2.4,2.4,0,0,1,375.422,5232.3Zm-34.775,0a2.4,2.4,0,1,1,2.4,2.4A2.4,2.4,0,0,1,340.647,5232.3Zm-34.774,0a2.4,2.4,0,1,1,2.4,2.4A2.4,2.4,0,0,1,305.873,5232.3Zm-34.775,0a2.4,2.4,0,1,1,2.4,2.4A2.4,2.4,0,0,1,271.1,5232.3Zm-34.772,0a2.4,2.4,0,1,1,2.4,2.4A2.4,2.4,0,0,1,236.326,5232.3Zm-34.776,0a2.4,2.4,0,1,1,2.4,2.4A2.4,2.4,0,0,1,201.549,5232.3Zm-34.776,0a2.4,2.4,0,1,1,2.4,2.4A2.4,2.4,0,0,1,166.773,5232.3Zm-34.774,0a2.4,2.4,0,1,1,2.4,2.4A2.4,2.4,0,0,1,132,5232.3ZM410.2,5209a2.4,2.4,0,1,1,2.4,2.4A2.4,2.4,0,0,1,410.2,5209Zm-34.774,0a2.4,2.4,0,1,1,2.4,2.4A2.4,2.4,0,0,1,375.422,5209Zm-34.775,0a2.4,2.4,0,1,1,2.4,2.4A2.4,2.4,0,0,1,340.647,5209Zm-34.774,0a2.4,2.4,0,1,1,2.4,2.4A2.4,2.4,0,0,1,305.873,5209Zm-34.775,0a2.4,2.4,0,1,1,2.4,2.4A2.4,2.4,0,0,1,271.1,5209Zm-34.772,0a2.4,2.4,0,1,1,2.4,2.4A2.4,2.4,0,0,1,236.326,5209Zm-34.776,0a2.4,2.4,0,1,1,2.4,2.4A2.4,2.4,0,0,1,201.549,5209Zm-34.776,0a2.4,2.4,0,1,1,2.4,2.4A2.4,2.4,0,0,1,166.773,5209ZM132,5209a2.4,2.4,0,1,1,2.4,2.4A2.4,2.4,0,0,1,132,5209Zm278.2-23.3a2.4,2.4,0,1,1,2.4,2.4A2.4,2.4,0,0,1,410.2,5185.7Zm-34.774,0a2.4,2.4,0,1,1,2.4,2.4A2.4,2.4,0,0,1,375.422,5185.7Zm-34.775,0a2.4,2.4,0,1,1,2.4,2.4A2.4,2.4,0,0,1,340.647,5185.7Zm-34.774,0a2.4,2.4,0,1,1,2.4,2.4A2.4,2.4,0,0,1,305.873,5185.7Zm-34.775,0a2.4,2.4,0,1,1,2.4,2.4A2.4,2.4,0,0,1,271.1,5185.7Zm-34.772,0a2.4,2.4,0,1,1,2.4,2.4A2.4,2.4,0,0,1,236.326,5185.7Zm-34.776,0a2.4,2.4,0,1,1,2.4,2.4A2.4,2.4,0,0,1,201.549,5185.7Zm-34.776,0a2.4,2.4,0,1,1,2.4,2.4A2.4,2.4,0,0,1,166.773,5185.7Zm-34.774,0a2.4,2.4,0,1,1,2.4,2.4A2.4,2.4,0,0,1,132,5185.7Zm278.2-23.3a2.4,2.4,0,1,1,2.4,2.4A2.4,2.4,0,0,1,410.2,5162.395Zm-34.774,0a2.4,2.4,0,1,1,2.4,2.4A2.4,2.4,0,0,1,375.422,5162.395Zm-34.775,0a2.4,2.4,0,1,1,2.4,2.4A2.4,2.4,0,0,1,340.647,5162.395Zm-34.774,0a2.4,2.4,0,1,1,2.4,2.4A2.4,2.4,0,0,1,305.873,5162.395Zm-34.775,0a2.4,2.4,0,1,1,2.4,2.4A2.4,2.4,0,0,1,271.1,5162.395Zm-34.772,0a2.4,2.4,0,1,1,2.4,2.4A2.4,2.4,0,0,1,236.326,5162.395Zm-34.776,0a2.4,2.4,0,1,1,2.4,2.4A2.4,2.4,0,0,1,201.549,5162.395Zm-34.776,0a2.4,2.4,0,1,1,2.4,2.4A2.4,2.4,0,0,1,166.773,5162.395Zm-34.774,0a2.4,2.4,0,1,1,2.4,2.4A2.4,2.4,0,0,1,132,5162.395Z" transform="translate(-131.999 -5160)" fill="#3db166"/>
</svg>
