<svg xmlns="http://www.w3.org/2000/svg" width="74" height="123" viewBox="0 0 74 123">
  <path id="Color_Overlay" data-name="Color Overlay" d="M104.331,3649.27a21.646,21.646,0,0,1-1.133-3.247,8.43,8.43,0,0,1-.2-1.4,3.016,3.016,0,0,1,4.095.3c1.444,1.216,2.813,2.521,4.176,3.83a3,3,0,0,1,.536,3.14,23.274,23.274,0,0,1-1.217,3.2c-.257.611-.787.863-1.659.9C106.278,3654.429,105.522,3651.692,104.331,3649.27Zm-27.923.753c-1.767-1.007-2.453-2.816-3.212-4.51-.869-1.939-1.558-3.958-2.3-5.952a3.306,3.306,0,0,1-.155-2.427,2.059,2.059,0,0,1,2.42.572c1.684,1.828,3.367,3.66,4.967,5.56a3.558,3.558,0,0,1,.581,1.776,7.244,7.244,0,0,1-.595,3.887c-.415.944-.545,1.094-1.545,1.094Zm5.988-25.914c-2.917-2.315-4.076-5.732-5.08-9.219a1.6,1.6,0,0,1,.482-1.881,3.194,3.194,0,0,1,2.787-.463,6.211,6.211,0,0,1,2.364,1.91,13.472,13.472,0,0,0,1.538,1.726,3.5,3.5,0,0,1,1.057,3.954,21.089,21.089,0,0,1-1.23,3.2,1.29,1.29,0,0,1-1.288.855A2.819,2.819,0,0,1,82.4,3624.109Zm4.192-15.7a42.513,42.513,0,0,1-1.139-4.3c-.119-.482-.158-.983-.22-1.389a2.4,2.4,0,0,1,2.84-.26,12.8,12.8,0,0,1,4.469,3.545c.45.513.866,1.055,1.345,1.643q.278,6.338-2.636,7.481C88.522,3613.723,87.539,3611.056,86.588,3608.412Zm-26.936-9.572,1.433-.195c.72.815,1.371,1.6,2.081,2.335a18.217,18.217,0,0,0,1.637,1.426,2.035,2.035,0,0,1,.764,2.182,25.375,25.375,0,0,1-1.288,3.318c-.1.23-.44.355-.645.509C61.163,3607.13,59.168,3602.372,59.652,3598.84ZM71.4,3586.516c-1.636-3.175-3.221-6.377-4.8-9.515a2.879,2.879,0,0,1,4.573-.775,14.24,14.24,0,0,1,1.593,1.841c1.071,1.389,2.141,2.781,3.154,4.212,1.44,2.035.673,4.832-.561,6.469a3.06,3.06,0,0,1-.869.553A6.478,6.478,0,0,1,71.4,3586.516Zm-.062-15.347a19.385,19.385,0,0,1-2.574-5.592c.937-1.2,2.163-1.388,3.2-.467.829.737,1.576,1.568,2.358,2.358a.694.694,0,0,1,.086.094c.846,1.16.589,4.047-.522,5.174A3.373,3.373,0,0,1,71.342,3571.169Zm-15.4-11.408c-.856-1.986-1.517-4.057-2.3-6.2.13-.238.311-.562.437-.79,1.924-.592,3.158.567,4.3,1.581a22.3,22.3,0,0,1,3,3.487,4.213,4.213,0,0,1,.364,4.024c-.32.958-.8,1.859-1.211,2.782l-1.038.052C57.49,3563.583,56.746,3561.622,55.945,3559.761ZM41.3,3549.174a22.515,22.515,0,0,1-3.3-7.3,1.938,1.938,0,0,1,2.741-.916,37.886,37.886,0,0,1,4.072,2.851,3.328,3.328,0,0,1,.8,1.678,6.642,6.642,0,0,1-1.115,5.5c-.062,0-.125,0-.185,0A3.623,3.623,0,0,1,41.3,3549.174Zm17.448-5.852a8.442,8.442,0,0,1-1.586-1.833c-1.163-1.986-2.246-4.022-3.335-6.053a16.836,16.836,0,0,1-.665-1.6l1.124-.833h0c3.148.831,4.993,3.451,7.339,5.092a6.893,6.893,0,0,1-1.6,5.8A4.559,4.559,0,0,1,58.749,3543.322Z" transform="translate(-38 -3533)" fill="#3db166"/>
</svg>
