<svg xmlns="http://www.w3.org/2000/svg" width="50.998" height="54" viewBox="0 0 50.998 54">
  <path id="Color_Overlay" data-name="Color Overlay" d="M101.688,6269.271a2.656,2.656,0,1,1,2.655,2.729A2.69,2.69,0,0,1,101.688,6269.271Zm-15.228,0A2.656,2.656,0,1,1,89.116,6272,2.69,2.69,0,0,1,86.46,6269.271Zm-15.231,0A2.657,2.657,0,1,1,73.885,6272,2.69,2.69,0,0,1,71.23,6269.271Zm-15.229,0A2.656,2.656,0,1,1,58.656,6272,2.69,2.69,0,0,1,56,6269.271Zm45.687-12.135a2.656,2.656,0,1,1,2.655,2.728A2.692,2.692,0,0,1,101.688,6257.136Zm-15.228,0a2.656,2.656,0,1,1,2.655,2.728A2.692,2.692,0,0,1,86.46,6257.136Zm-15.231,0a2.657,2.657,0,1,1,2.655,2.728A2.692,2.692,0,0,1,71.23,6257.136Zm-15.229,0a2.656,2.656,0,1,1,2.655,2.728A2.692,2.692,0,0,1,56,6257.136ZM101.688,6245a2.656,2.656,0,1,1,2.655,2.726A2.693,2.693,0,0,1,101.688,6245Zm-15.228,0a2.656,2.656,0,1,1,2.655,2.726A2.693,2.693,0,0,1,86.46,6245Zm-15.231,0a2.657,2.657,0,1,1,2.655,2.726A2.693,2.693,0,0,1,71.23,6245ZM56,6245a2.656,2.656,0,1,1,2.655,2.726A2.693,2.693,0,0,1,56,6245Zm45.687-12.136a2.656,2.656,0,1,1,2.655,2.727A2.693,2.693,0,0,1,101.688,6232.865Zm-15.228,0a2.656,2.656,0,1,1,2.655,2.727A2.693,2.693,0,0,1,86.46,6232.865Zm-15.231,0a2.657,2.657,0,1,1,2.655,2.727A2.693,2.693,0,0,1,71.23,6232.865Zm-15.229,0a2.656,2.656,0,1,1,2.655,2.727A2.693,2.693,0,0,1,56,6232.865Zm30.46-12.136a2.656,2.656,0,1,1,2.655,2.726A2.691,2.691,0,0,1,86.46,6220.729Zm-15.231,0a2.657,2.657,0,1,1,2.655,2.726A2.691,2.691,0,0,1,71.23,6220.729Zm-15.229,0a2.656,2.656,0,1,1,2.655,2.726A2.691,2.691,0,0,1,56,6220.729Zm45.687,0a2.694,2.694,0,0,1,2.558-2.728h.194a2.727,2.727,0,1,1-2.751,2.728Z" transform="translate(-56.001 -6218)" fill="#f67f51"/>
</svg>
