<svg xmlns="http://www.w3.org/2000/svg" xmlns:xlink="http://www.w3.org/1999/xlink" width="51.001" height="54" viewBox="0 0 51.001 54">
  <defs>
    <clipPath id="clip-path">
      <rect id="Rectangle_12" data-name="Rectangle 12" width="51.001" height="54" transform="translate(0 0)" fill="none"/>
    </clipPath>
  </defs>
  <g id="Vector_Smart_Object" data-name="Vector Smart Object" transform="translate(-56 -7160)" opacity="0.729">
    <g id="Vector_Smart_Object-2" data-name="Vector Smart Object" transform="translate(56 7160)">
      <g id="Group_24" data-name="Group 24">
        <g id="Group_23" data-name="Group 23" clip-path="url(#clip-path)">
          <path id="Path_12" data-name="Path 12" d="M48.343,5.454A2.692,2.692,0,0,0,51,2.727a2.657,2.657,0,1,0-5.312,0,2.692,2.692,0,0,0,2.656,2.727" fill="#fff"/>
          <path id="Path_13" data-name="Path 13" d="M17.886,48.545a2.729,2.729,0,1,0,2.656,2.727,2.692,2.692,0,0,0-2.656-2.727" fill="#fff"/>
          <path id="Path_14" data-name="Path 14" d="M17.886,36.409a2.729,2.729,0,1,0,2.656,2.727,2.692,2.692,0,0,0-2.656-2.727" fill="#fff"/>
          <path id="Path_15" data-name="Path 15" d="M17.886,24.272A2.729,2.729,0,1,0,20.541,27a2.692,2.692,0,0,0-2.656-2.729" fill="#fff"/>
          <path id="Path_16" data-name="Path 16" d="M17.886,12.136a2.729,2.729,0,1,0,2.656,2.729,2.692,2.692,0,0,0-2.656-2.729" fill="#fff"/>
          <path id="Path_17" data-name="Path 17" d="M2.656,12.136a2.729,2.729,0,0,0,0,5.456,2.729,2.729,0,0,0,0-5.456" fill="#fff"/>
          <path id="Path_18" data-name="Path 18" d="M2.656,24.272a2.729,2.729,0,0,0,0,5.456,2.729,2.729,0,0,0,0-5.456" fill="#fff"/>
          <path id="Path_19" data-name="Path 19" d="M2.656,48.545a2.729,2.729,0,0,0,0,5.456,2.729,2.729,0,0,0,0-5.456" fill="#fff"/>
          <path id="Path_20" data-name="Path 20" d="M2.656,36.409a2.729,2.729,0,0,0,0,5.456,2.729,2.729,0,0,0,0-5.456" fill="#fff"/>
          <path id="Path_21" data-name="Path 21" d="M2.656,0A2.692,2.692,0,0,0,0,2.729,2.692,2.692,0,0,0,2.656,5.456,2.692,2.692,0,0,0,5.312,2.729,2.692,2.692,0,0,0,2.656,0" fill="#fff"/>
          <path id="Path_22" data-name="Path 22" d="M17.886,0A2.692,2.692,0,0,0,15.23,2.729a2.657,2.657,0,1,0,5.312,0A2.692,2.692,0,0,0,17.886,0" fill="#fff"/>
          <path id="Path_23" data-name="Path 23" d="M48.343,36.409A2.729,2.729,0,1,0,51,39.135a2.692,2.692,0,0,0-2.656-2.727" fill="#fff"/>
          <path id="Path_24" data-name="Path 24" d="M48.343,24.272A2.729,2.729,0,1,0,51,27a2.692,2.692,0,0,0-2.656-2.729" fill="#fff"/>
          <path id="Path_25" data-name="Path 25" d="M48.343,12.136A2.729,2.729,0,1,0,51,14.865a2.692,2.692,0,0,0-2.656-2.729" fill="#fff"/>
          <path id="Path_26" data-name="Path 26" d="M48.343,48.545A2.729,2.729,0,1,0,51,51.272a2.692,2.692,0,0,0-2.656-2.727" fill="#fff"/>
          <path id="Path_27" data-name="Path 27" d="M33.115,12.136a2.729,2.729,0,1,0,2.656,2.729,2.692,2.692,0,0,0-2.656-2.729" fill="#fff"/>
          <path id="Path_28" data-name="Path 28" d="M33.115,36.409a2.729,2.729,0,1,0,2.656,2.727,2.692,2.692,0,0,0-2.656-2.727" fill="#fff"/>
          <path id="Path_29" data-name="Path 29" d="M33.115,0A2.692,2.692,0,0,0,30.46,2.729a2.657,2.657,0,1,0,5.312,0A2.692,2.692,0,0,0,33.115,0" fill="#fff"/>
          <path id="Path_30" data-name="Path 30" d="M33.115,48.545a2.729,2.729,0,1,0,2.656,2.727,2.692,2.692,0,0,0-2.656-2.727" fill="#fff"/>
          <path id="Path_31" data-name="Path 31" d="M33.115,24.272A2.729,2.729,0,1,0,35.771,27a2.692,2.692,0,0,0-2.656-2.729" fill="#fff"/>
        </g>
      </g>
    </g>
    <path id="Color_Overlay" data-name="Color Overlay" d="M101.687,7211.271a2.657,2.657,0,1,1,2.656,2.729A2.692,2.692,0,0,1,101.687,7211.271Zm-15.228,0A2.657,2.657,0,1,1,89.115,7214,2.692,2.692,0,0,1,86.459,7211.271Zm-15.23,0A2.657,2.657,0,1,1,73.886,7214,2.692,2.692,0,0,1,71.23,7211.271Zm-15.23,0A2.657,2.657,0,1,1,58.656,7214,2.692,2.692,0,0,1,56,7211.271Zm45.687-12.135a2.657,2.657,0,1,1,2.656,2.728A2.692,2.692,0,0,1,101.687,7199.136Zm-15.228,0a2.657,2.657,0,1,1,2.656,2.728A2.692,2.692,0,0,1,86.459,7199.136Zm-15.23,0a2.657,2.657,0,1,1,2.656,2.728A2.692,2.692,0,0,1,71.23,7199.136Zm-15.23,0a2.657,2.657,0,1,1,2.656,2.728A2.692,2.692,0,0,1,56,7199.136ZM101.687,7187a2.657,2.657,0,1,1,2.656,2.729A2.694,2.694,0,0,1,101.687,7187Zm-15.228,0a2.657,2.657,0,1,1,2.656,2.729A2.694,2.694,0,0,1,86.459,7187Zm-15.23,0a2.657,2.657,0,1,1,2.656,2.729A2.694,2.694,0,0,1,71.23,7187ZM56,7187a2.657,2.657,0,1,1,2.656,2.729A2.694,2.694,0,0,1,56,7187Zm45.687-12.136a2.657,2.657,0,1,1,2.656,2.727A2.692,2.692,0,0,1,101.687,7174.865Zm-15.228,0a2.657,2.657,0,1,1,2.656,2.727A2.692,2.692,0,0,1,86.459,7174.865Zm-15.23,0a2.657,2.657,0,1,1,2.656,2.727A2.692,2.692,0,0,1,71.23,7174.865Zm-15.23,0a2.657,2.657,0,1,1,2.656,2.727A2.692,2.692,0,0,1,56,7174.865Zm30.459-12.136a2.657,2.657,0,1,1,2.656,2.727A2.692,2.692,0,0,1,86.459,7162.729Zm-15.23,0a2.657,2.657,0,1,1,2.656,2.727A2.692,2.692,0,0,1,71.23,7162.729Zm-15.23,0a2.657,2.657,0,1,1,2.656,2.727A2.692,2.692,0,0,1,56,7162.729Zm45.687,0a2.693,2.693,0,0,1,2.56-2.727h.192a2.727,2.727,0,1,1-2.752,2.727Z" fill="#3db166"/>
  </g>
</svg>
