<svg xmlns="http://www.w3.org/2000/svg" width="42.001" height="21.999" viewBox="0 0 42.001 21.999">
  <path id="Color_Overlay" data-name="Color Overlay" d="M149.266,6090.147a6.324,6.324,0,0,0-5.284-4.183l-1.155-.092a7.376,7.376,0,0,0-5.726,2.1,5.291,5.291,0,0,1-4.125,1.512,5.449,5.449,0,0,1-4.976-5.4v-.155a5.924,5.924,0,0,1,.308-1.79,5.334,5.334,0,0,1,9.4-1.408,7.7,7.7,0,0,0,5.781,2.909l.548.042a6.037,6.037,0,0,0,5.8-3.036,10.736,10.736,0,0,1,9.335-5.647h.116c.254,0,.51.01.765.03A10.9,10.9,0,0,1,170,6085.848v.286a11.647,11.647,0,0,1-.2,1.983,10.906,10.906,0,0,1-9.857,8.861q-.344.021-.684.021A10.769,10.769,0,0,1,149.266,6090.147Z" transform="translate(-128 -6075.001)" fill="#f67f51"/>
</svg>
