<svg xmlns="http://www.w3.org/2000/svg" xmlns:xlink="http://www.w3.org/1999/xlink" width="283" height="98.001" viewBox="0 0 283 98.001">
  <defs>
    <clipPath id="clip-path">
      <rect id="Rectangle_1" data-name="Rectangle 1" width="283" height="98.001" transform="translate(0 -0.001)" fill="none"/>
    </clipPath>
  </defs>
  <g id="Vector_Smart_Object" data-name="Vector Smart Object" transform="translate(16 -792.999)">
    <g id="Vector_Smart_Object-2" data-name="Vector Smart Object" transform="translate(-16 793)">
      <g id="Group_2" data-name="Group 2">
        <g id="Group_1" data-name="Group 1" clip-path="url(#clip-path)">
          <path id="Path_1" data-name="Path 1" d="M4.8,2.395A2.4,2.4,0,1,1,2.4,0,2.4,2.4,0,0,1,4.8,2.395" fill="#fff"/>
          <path id="Path_2" data-name="Path 2" d="M39.578,2.395A2.4,2.4,0,1,1,37.176,0a2.4,2.4,0,0,1,2.4,2.395" fill="#e8524a"/>
          <path id="Path_3" data-name="Path 3" d="M74.354,2.395A2.4,2.4,0,1,1,71.952,0a2.4,2.4,0,0,1,2.4,2.395" fill="#e8524a"/>
          <path id="Path_4" data-name="Path 4" d="M109.128,2.395A2.4,2.4,0,1,1,106.725,0a2.4,2.4,0,0,1,2.4,2.395" fill="#fff"/>
          <path id="Path_5" data-name="Path 5" d="M143.9,2.395A2.4,2.4,0,1,1,141.5,0a2.4,2.4,0,0,1,2.4,2.395" fill="#e8524a"/>
          <path id="Path_6" data-name="Path 6" d="M178.677,2.395A2.4,2.4,0,1,1,176.273,0a2.4,2.4,0,0,1,2.4,2.395" fill="#e8524a"/>
          <path id="Path_7" data-name="Path 7" d="M213.451,2.395A2.4,2.4,0,1,1,211.048,0a2.4,2.4,0,0,1,2.4,2.395" fill="#e8524a"/>
          <path id="Path_8" data-name="Path 8" d="M248.224,2.395A2.4,2.4,0,1,1,245.822,0a2.4,2.4,0,0,1,2.4,2.395" fill="#e8524a"/>
          <path id="Path_9" data-name="Path 9" d="M283,2.395A2.4,2.4,0,1,1,280.6,0,2.4,2.4,0,0,1,283,2.395" fill="#e8524a"/>
          <path id="Path_10" data-name="Path 10" d="M4.8,25.7A2.4,2.4,0,1,1,2.4,23.3,2.4,2.4,0,0,1,4.8,25.7" fill="#e8524a"/>
          <path id="Path_11" data-name="Path 11" d="M39.578,25.7a2.4,2.4,0,1,1-2.4-2.395,2.4,2.4,0,0,1,2.4,2.395" fill="#e8524a"/>
          <path id="Path_12" data-name="Path 12" d="M74.354,25.7a2.4,2.4,0,1,1-2.4-2.395,2.4,2.4,0,0,1,2.4,2.395" fill="#e8524a"/>
          <path id="Path_13" data-name="Path 13" d="M109.128,25.7a2.4,2.4,0,1,1-2.4-2.395,2.4,2.4,0,0,1,2.4,2.395" fill="#e8524a"/>
          <path id="Path_14" data-name="Path 14" d="M143.9,25.7a2.4,2.4,0,1,1-2.4-2.395,2.4,2.4,0,0,1,2.4,2.395" fill="#e8524a"/>
          <path id="Path_15" data-name="Path 15" d="M178.677,25.7a2.4,2.4,0,1,1-2.4-2.395,2.4,2.4,0,0,1,2.4,2.395" fill="#fff"/>
          <path id="Path_16" data-name="Path 16" d="M213.451,25.7a2.4,2.4,0,1,1-2.4-2.395,2.4,2.4,0,0,1,2.4,2.395" fill="#e8524a"/>
          <path id="Path_17" data-name="Path 17" d="M248.224,25.7a2.4,2.4,0,1,1-2.4-2.395,2.4,2.4,0,0,1,2.4,2.395" fill="#e8524a"/>
          <path id="Path_18" data-name="Path 18" d="M283,25.7a2.4,2.4,0,1,1-2.4-2.395A2.4,2.4,0,0,1,283,25.7" fill="#fff"/>
          <path id="Path_19" data-name="Path 19" d="M4.8,49a2.4,2.4,0,1,1-2.4-2.395A2.4,2.4,0,0,1,4.8,49" fill="#e8524a"/>
          <path id="Path_20" data-name="Path 20" d="M39.578,49a2.4,2.4,0,1,1-2.4-2.395A2.4,2.4,0,0,1,39.578,49" fill="#fff"/>
          <path id="Path_21" data-name="Path 21" d="M74.354,49a2.4,2.4,0,1,1-2.4-2.395A2.4,2.4,0,0,1,74.354,49" fill="#e8524a"/>
          <path id="Path_22" data-name="Path 22" d="M109.128,49a2.4,2.4,0,1,1-2.4-2.395,2.4,2.4,0,0,1,2.4,2.395" fill="#e8524a"/>
          <path id="Path_23" data-name="Path 23" d="M143.9,49a2.4,2.4,0,1,1-2.4-2.395A2.4,2.4,0,0,1,143.9,49" fill="#e8524a"/>
          <path id="Path_24" data-name="Path 24" d="M178.677,49a2.4,2.4,0,1,1-2.4-2.395,2.4,2.4,0,0,1,2.4,2.395" fill="#e8524a"/>
          <path id="Path_25" data-name="Path 25" d="M213.451,49a2.4,2.4,0,1,1-2.4-2.395,2.4,2.4,0,0,1,2.4,2.395" fill="#fff"/>
          <path id="Path_26" data-name="Path 26" d="M248.224,49a2.4,2.4,0,1,1-2.4-2.395,2.4,2.4,0,0,1,2.4,2.395" fill="#e8524a"/>
          <path id="Path_27" data-name="Path 27" d="M283,49a2.4,2.4,0,1,1-2.4-2.395A2.4,2.4,0,0,1,283,49" fill="#e8524a"/>
          <path id="Path_28" data-name="Path 28" d="M4.8,72.3a2.4,2.4,0,1,1-2.4-2.4,2.4,2.4,0,0,1,2.4,2.4" fill="#e8524a"/>
          <path id="Path_29" data-name="Path 29" d="M39.578,72.3a2.4,2.4,0,1,1-2.4-2.4,2.4,2.4,0,0,1,2.4,2.4" fill="#e8524a"/>
          <path id="Path_30" data-name="Path 30" d="M74.354,72.3a2.4,2.4,0,1,1-2.4-2.4,2.4,2.4,0,0,1,2.4,2.4" fill="#fff"/>
          <path id="Path_31" data-name="Path 31" d="M109.128,72.3a2.4,2.4,0,1,1-2.4-2.4,2.4,2.4,0,0,1,2.4,2.4" fill="#e8524a"/>
          <path id="Path_32" data-name="Path 32" d="M143.9,72.3a2.4,2.4,0,1,1-2.4-2.4,2.4,2.4,0,0,1,2.4,2.4" fill="#fff"/>
          <path id="Path_33" data-name="Path 33" d="M178.677,72.3a2.4,2.4,0,1,1-2.4-2.4,2.4,2.4,0,0,1,2.4,2.4" fill="#e8524a"/>
          <path id="Path_34" data-name="Path 34" d="M213.451,72.3a2.4,2.4,0,1,1-2.4-2.4,2.4,2.4,0,0,1,2.4,2.4" fill="#e8524a"/>
          <path id="Path_35" data-name="Path 35" d="M248.224,72.3a2.4,2.4,0,1,1-2.4-2.4,2.4,2.4,0,0,1,2.4,2.4" fill="#e8524a"/>
          <path id="Path_36" data-name="Path 36" d="M283,72.3a2.4,2.4,0,1,1-2.4-2.4,2.4,2.4,0,0,1,2.4,2.4" fill="#e8524a"/>
          <path id="Path_37" data-name="Path 37" d="M4.8,95.606a2.4,2.4,0,1,1-2.4-2.4,2.4,2.4,0,0,1,2.4,2.4" fill="#e8524a"/>
          <path id="Path_38" data-name="Path 38" d="M39.578,95.606a2.4,2.4,0,1,1-2.4-2.4,2.4,2.4,0,0,1,2.4,2.4" fill="#e8524a"/>
          <path id="Path_39" data-name="Path 39" d="M74.354,95.606a2.4,2.4,0,1,1-2.4-2.4,2.4,2.4,0,0,1,2.4,2.4" fill="#e8524a"/>
          <path id="Path_40" data-name="Path 40" d="M109.128,95.606a2.4,2.4,0,1,1-2.4-2.4,2.4,2.4,0,0,1,2.4,2.4" fill="#e8524a"/>
          <path id="Path_41" data-name="Path 41" d="M143.9,95.606a2.4,2.4,0,1,1-2.4-2.4,2.4,2.4,0,0,1,2.4,2.4" fill="#e8524a"/>
          <path id="Path_42" data-name="Path 42" d="M178.677,95.606a2.4,2.4,0,1,1-2.4-2.4,2.4,2.4,0,0,1,2.4,2.4" fill="#e8524a"/>
          <path id="Path_43" data-name="Path 43" d="M213.451,95.606a2.4,2.4,0,1,1-2.4-2.4,2.4,2.4,0,0,1,2.4,2.4" fill="#e8524a"/>
          <path id="Path_44" data-name="Path 44" d="M248.224,95.606a2.4,2.4,0,1,1-2.4-2.4,2.4,2.4,0,0,1,2.4,2.4" fill="#fff"/>
          <path id="Path_45" data-name="Path 45" d="M283,95.606a2.4,2.4,0,1,1-2.4-2.4,2.4,2.4,0,0,1,2.4,2.4" fill="#fff"/>
        </g>
      </g>
    </g>
    <path id="Color_Overlay" data-name="Color Overlay" d="M264.53,891a2.4,2.4,0,1,1,.131,0Zm-34.773,0a2.4,2.4,0,1,1,.131,0Zm-34.774,0a2.4,2.4,0,1,1,.131,0Zm-34.775,0a2.4,2.4,0,1,1,.131,0Zm-34.774,0a2.4,2.4,0,1,1,.131,0ZM90.66,891a2.4,2.4,0,1,1,.131,0Zm-34.774,0a2.4,2.4,0,1,1,.131,0ZM21.11,891a2.4,2.4,0,1,1,.131,0Zm-34.774,0A2.4,2.4,0,0,1-16,888.606a2.4,2.4,0,0,1,2.4-2.4,2.4,2.4,0,0,1,2.4,2.4A2.4,2.4,0,0,1-13.532,891ZM262.2,865.3a2.4,2.4,0,1,1,2.4,2.395A2.4,2.4,0,0,1,262.2,865.3Zm-34.773,0a2.4,2.4,0,1,1,2.4,2.395A2.4,2.4,0,0,1,227.422,865.3Zm-34.776,0a2.4,2.4,0,1,1,2.4,2.395A2.4,2.4,0,0,1,192.646,865.3Zm-34.773,0a2.4,2.4,0,1,1,2.4,2.395A2.4,2.4,0,0,1,157.873,865.3Zm-34.774,0a2.4,2.4,0,1,1,2.4,2.395A2.4,2.4,0,0,1,123.1,865.3Zm-34.773,0a2.4,2.4,0,1,1,2.4,2.395A2.4,2.4,0,0,1,88.325,865.3Zm-34.776,0a2.4,2.4,0,1,1,2.4,2.395A2.4,2.4,0,0,1,53.549,865.3Zm-34.776,0a2.4,2.4,0,1,1,2.4,2.395A2.4,2.4,0,0,1,18.773,865.3ZM-16,865.3a2.4,2.4,0,0,1,2.4-2.4,2.4,2.4,0,0,1,2.4,2.4,2.4,2.4,0,0,1-2.4,2.395A2.4,2.4,0,0,1-16,865.3ZM262.2,842a2.4,2.4,0,1,1,2.4,2.395A2.4,2.4,0,0,1,262.2,842Zm-34.773,0a2.4,2.4,0,1,1,2.4,2.395A2.4,2.4,0,0,1,227.422,842Zm-34.776,0a2.4,2.4,0,1,1,2.4,2.395A2.4,2.4,0,0,1,192.646,842Zm-34.773,0a2.4,2.4,0,1,1,2.4,2.395A2.4,2.4,0,0,1,157.873,842ZM123.1,842a2.4,2.4,0,1,1,2.4,2.395A2.4,2.4,0,0,1,123.1,842Zm-34.773,0a2.4,2.4,0,1,1,2.4,2.395A2.4,2.4,0,0,1,88.325,842Zm-34.776,0a2.4,2.4,0,1,1,2.4,2.395A2.4,2.4,0,0,1,53.549,842Zm-34.776,0a2.4,2.4,0,1,1,2.4,2.395A2.4,2.4,0,0,1,18.773,842ZM-16,842a2.4,2.4,0,0,1,2.4-2.395A2.4,2.4,0,0,1-11.2,842a2.4,2.4,0,0,1-2.4,2.395A2.4,2.4,0,0,1-16,842Zm278.2-23.3a2.4,2.4,0,1,1,2.4,2.395A2.4,2.4,0,0,1,262.2,818.7Zm-34.773,0a2.4,2.4,0,1,1,2.4,2.395A2.4,2.4,0,0,1,227.422,818.7Zm-34.776,0a2.4,2.4,0,1,1,2.4,2.395A2.4,2.4,0,0,1,192.646,818.7Zm-34.773,0a2.4,2.4,0,1,1,2.4,2.395A2.4,2.4,0,0,1,157.873,818.7Zm-34.774,0a2.4,2.4,0,1,1,2.4,2.395A2.4,2.4,0,0,1,123.1,818.7Zm-34.773,0a2.4,2.4,0,1,1,2.4,2.395A2.4,2.4,0,0,1,88.325,818.7Zm-34.776,0a2.4,2.4,0,1,1,2.4,2.395A2.4,2.4,0,0,1,53.549,818.7Zm-34.776,0a2.4,2.4,0,1,1,2.4,2.395A2.4,2.4,0,0,1,18.773,818.7ZM-16,818.7a2.4,2.4,0,0,1,2.4-2.395,2.4,2.4,0,0,1,2.4,2.395,2.4,2.4,0,0,1-2.4,2.395A2.4,2.4,0,0,1-16,818.7Zm278.2-23.3a2.4,2.4,0,1,1,2.4,2.4A2.4,2.4,0,0,1,262.2,795.395Zm-34.773,0a2.4,2.4,0,1,1,2.4,2.4A2.4,2.4,0,0,1,227.422,795.395Zm-34.776,0a2.4,2.4,0,1,1,2.4,2.4A2.4,2.4,0,0,1,192.646,795.395Zm-34.773,0a2.4,2.4,0,1,1,2.4,2.4A2.4,2.4,0,0,1,157.873,795.395Zm-34.774,0a2.4,2.4,0,1,1,2.4,2.4A2.4,2.4,0,0,1,123.1,795.395Zm-34.773,0a2.4,2.4,0,1,1,2.4,2.4A2.4,2.4,0,0,1,88.325,795.395Zm-34.776,0a2.4,2.4,0,1,1,2.4,2.4A2.4,2.4,0,0,1,53.549,795.395Zm-34.776,0a2.4,2.4,0,1,1,2.4,2.4A2.4,2.4,0,0,1,18.773,795.395Zm-34.773,0A2.4,2.4,0,0,1-13.6,793a2.4,2.4,0,0,1,2.4,2.395,2.4,2.4,0,0,1-2.4,2.4A2.4,2.4,0,0,1-16,795.395Z" fill="#02022f"/>
  </g>
</svg>
