<svg xmlns="http://www.w3.org/2000/svg" xmlns:xlink="http://www.w3.org/1999/xlink" width="77.518" height="79.916" viewBox="0 0 77.518 79.916">
  <defs>
    <clipPath id="clip-path">
      <rect id="Rectangle_295" data-name="Rectangle 295" width="67.5" height="64.337" transform="translate(1641.007 5856.324) rotate(-102.607)" fill="none"/>
    </clipPath>
  </defs>
  <g id="Vector_Smart_Object_copy_15" data-name="Vector Smart Object copy 15" transform="translate(-1626.274 -5776.409)">
    <g id="Vector_Smart_Object_copy_15-2" data-name="Vector Smart Object copy 15">
      <g id="Group_591" data-name="Group 591">
        <g id="Group_590" data-name="Group 590" clip-path="url(#clip-path)">
          <path id="Path_1238" data-name="Path 1238" d="M1696.632,5808.825c1.775,8.632,1.372,15.886-1.783,22.855-7.176,15.843-25.627,22.546-41.771,15.22a31.477,31.477,0,0,1-11.665-8.95,38.551,38.551,0,0,1-8.1-15.812,29.322,29.322,0,0,1-.684-6.853,35.7,35.7,0,0,1,3.938-16.081c5.469-10.409,14.185-15.723,26.082-15.429a42.777,42.777,0,0,1,12.957,2.436c11.545,4,18.345,12.2,21.022,22.613m-12.738,15.632a2.621,2.621,0,0,0-.606,2.672c.168.6.012,1.415.909,1.6a3.336,3.336,0,0,0,1.8-4.221l-2.107-.05m-5.248,13.043c.36-.115.576-.118.685-.228.942-.948,1.9-1.883,2.77-2.9.226-.266.136-.8.174-1.085a1.839,1.839,0,0,0-2.276-.294c-.529,1.1-1.053,2.179-1.615,3.342Zm8.882-9.785c-.652,1.753-1.8,3.084-1.261,5.034.422-.159.86-.185,1.026-.408a11.3,11.3,0,0,0,2.047-4.233l-1.812-.393m1.082-17.81c.391,1.143.351,2.376,1.073,3.589a8.077,8.077,0,0,0,1.507-4.113c-1.319-.946-1.766-.854-2.58.524" fill="#f0b149"/>
        </g>
      </g>
    </g>
    <path id="Color_Overlay" data-name="Color Overlay" d="M1653.078,5846.9a31.516,31.516,0,0,1-11.666-8.951,39.685,39.685,0,0,1-7.687-14.184l-.7-3.127a29.419,29.419,0,0,1-.392-5.353,35.715,35.715,0,0,1,3.938-16.082c5.469-10.41,14.185-15.722,26.081-15.43a42.826,42.826,0,0,1,12.958,2.437c10.173,3.528,16.662,10.312,19.892,19l1.928,8.619a33.128,33.128,0,0,1-2.579,17.851,30.7,30.7,0,0,1-19.824,17.036l-3.127.7a31.525,31.525,0,0,1-5.3.448A32.651,32.651,0,0,1,1653.078,5846.9ZM1680,5832.994c-.529,1.1-1.051,2.18-1.615,3.343l.261,1.164c.361-.116.577-.119.687-.228.941-.948,1.9-1.883,2.769-2.9.226-.266.137-.8.175-1.085a1.75,1.75,0,0,0-1.235-.557A2.713,2.713,0,0,0,1680,5832.994Zm6.269-.247c.421-.157.86-.182,1.026-.405a11.3,11.3,0,0,0,2.047-4.233c-.627-.138-1.147-.25-1.812-.395C1686.877,5829.468,1685.732,5830.8,1686.268,5832.748Zm-2.98-5.617c.169.6.013,1.414.91,1.6a3.337,3.337,0,0,0,1.8-4.222l-2.107-.048A2.624,2.624,0,0,0,1683.288,5827.13Zm5.322-17.224c.392,1.142.352,2.375,1.075,3.589a8.079,8.079,0,0,0,1.506-4.115,2.562,2.562,0,0,0-1.324-.624C1689.416,5808.757,1689.072,5809.125,1688.61,5809.906Z" fill="#f37d4f"/>
  </g>
</svg>
