<svg xmlns="http://www.w3.org/2000/svg" width="176" height="165.998" viewBox="0 0 176 165.998">
  <path id="Color_Overlay" data-name="Color Overlay" d="M167.187,1286a3.474,3.474,0,0,1-3.35-3.573,2.672,2.672,0,0,1,2.768-2.657,3.883,3.883,0,0,1,3.395,3.6v.117c0,.037,0,.074,0,.111a2.535,2.535,0,0,1-2.6,2.4ZM57.962,1275.607c-.036-1.689-.4-3.571,1.717-5.463a37.436,37.436,0,0,1,5.592,1.936,5.54,5.54,0,0,1,2.273,6.9,3.665,3.665,0,0,1-3.638,2.3l-.2,0A5.6,5.6,0,0,1,57.962,1275.607Zm71.417-7.228a6.108,6.108,0,0,1-.835-6.791,4.478,4.478,0,0,1,4.559-2.646h-.111l.04,0c3.307.3,7.383,6.446,6.188,9.555a4.719,4.719,0,0,1-2.153,2.26,3.851,3.851,0,0,1-1.728.362A8.731,8.731,0,0,1,129.379,1268.379Zm-67.812-10.756a2.962,2.962,0,0,1-2.883-3.017,3.036,3.036,0,0,1,3.09-3.162,3.305,3.305,0,0,1,3.11,3.245,3.075,3.075,0,0,1-3.124,2.938C61.7,1257.629,61.631,1257.627,61.566,1257.623ZM39,1249.175c-.075-2.154.906-3.5,2.578-3.535,2.215-.055,4.77,2.879,4.792,5.5a2.753,2.753,0,0,1-2.7,3.084l-.136,0C41.212,1254.228,39.091,1251.885,39,1249.175Zm44.43-3.488a3.438,3.438,0,0,1,5.714-2.281c2.65,2,3.385,6.912,1.357,9.921-.1,0-.2.007-.3.007C86.17,1253.334,82.759,1249.439,83.432,1245.686Zm9.46-13.111a4.028,4.028,0,0,1,4.086-3.883c3.29.036,6.521,4.281,5.684,7.482a3.424,3.424,0,0,1-2.927,2.724,4.413,4.413,0,0,1-.729.06C95.88,1238.959,92.67,1235.746,92.892,1232.575Zm-88.8-4.074c-.118-3.011,1.91-5.311,4.651-5.274,2.858.036,5.693,3.1,5.747,6.2a4.694,4.694,0,0,1-4.583,5.012c-.066,0-.13,0-.2,0A5.907,5.907,0,0,1,4.087,1228.5Zm52.1,1.448a3.6,3.6,0,0,1,3.685-3.763,5.174,5.174,0,0,1,5.036,4.67,3.438,3.438,0,0,1-3.513,3.532c-.066,0-.131,0-.2,0A5.058,5.058,0,0,1,56.187,1229.949Zm-16.748.882a7.577,7.577,0,0,1-4.432-8.6c.433-2.013,1.9-3.164,3.694-2.9,3.223.466,6.623,4.385,6.623,7.628,0,2.8-1.387,4.41-3.54,4.411A6.061,6.061,0,0,1,39.439,1230.831Zm41.256-1.962a6.084,6.084,0,0,1-1.49-5.827,3.49,3.49,0,0,1,1.994-2.268,3.681,3.681,0,0,1,3.077,1.071,22.539,22.539,0,0,1,2.125,4.688c-.315,1.612-.86,2.773-2.2,3.367a2.723,2.723,0,0,1-1.112.249A3.275,3.275,0,0,1,80.695,1228.869Zm-57.864-.335a5.453,5.453,0,0,1-5.161-5.758,4.8,4.8,0,0,1,5.008-4.981,5.715,5.715,0,0,1,5.6,5.751,5.093,5.093,0,0,1-5.187,4.994C23,1228.54,22.918,1228.538,22.831,1228.534Zm98.293-15.791a7.081,7.081,0,0,1-6.551-6.886,4.865,4.865,0,0,1,5.138-4.818,6.4,6.4,0,0,1,6.109,6.785c-.077,2.893-1.961,4.891-4.647,4.918ZM2.3,1207.412a28.075,28.075,0,0,1-1.5-4.873c.239-1.415.328-2.3.543-3.149.869-3.421,3.325-4.766,6.449-3.319,3.215,1.489,5.691,3.784,6.121,7.6a6.125,6.125,0,0,1-4.405,6.873,6.266,6.266,0,0,1-1.79.263A5.993,5.993,0,0,1,2.3,1207.412Zm71.655-.088a8.3,8.3,0,0,1-3.83-6.583,5.356,5.356,0,0,1,1.513-3.7c1.2-1.1,2.663-.142,3.815.747,1.741,1.347,3.335,4.729,3.333,7.71-.271.412-.7,1.788-1.571,2.192a2.759,2.759,0,0,1-1.135.212A3.991,3.991,0,0,1,73.952,1207.324ZM20.077,1197.9a3.848,3.848,0,0,1,1.679-4.009c1.5-.962,2.9-.532,4.242.412,3.577,2.522,3.825,5.51.63,9.278C22.663,1203.312,20.492,1201.4,20.077,1197.9Zm32.429,5.58a5.805,5.805,0,0,1-5.09-5.212,3.367,3.367,0,0,1,3.333-3.712c2.488-.085,4.995,2.7,5.018,5.575a3.135,3.135,0,0,1-3.157,3.351ZM89.589,1192.3a5.018,5.018,0,0,1,4.91-5.131c2.985-.021,5.377,2.563,5.432,5.87.049,3.025-1.9,5.267-4.636,5.329h-.1C92.241,1198.374,89.579,1195.508,89.589,1192.3Zm-51-6.414a11.71,11.71,0,0,1-1.933-4.411,3.09,3.09,0,0,1,2.279-3.574,3.187,3.187,0,0,1,3.947,1.532,34.065,34.065,0,0,1,1.688,4.37c-.715,1.052-1.234,2.478-2.243,3.141a2.309,2.309,0,0,1-1.282.392A3.066,3.066,0,0,1,38.589,1185.89Zm66.061-2.234a4.037,4.037,0,0,1-4.081-4.167,3.041,3.041,0,0,1,3.538-2.957c2.186.148,4.306,2.281,4.208,4.234a3.2,3.2,0,0,1-3.5,2.893Zm-91.386-6.132a4.533,4.533,0,0,1,4.509-4.958c3.028-.057,5.333,2.6,5.376,6.217.036,2.8-1.472,4.551-3.971,4.608l-.112,0A6.207,6.207,0,0,1,13.264,1177.525Zm63.2-3.659a8.15,8.15,0,0,1-1.846-9.112,5.281,5.281,0,0,1,8.651-1.949,9.456,9.456,0,0,1,2.98,7.034,5.477,5.477,0,0,1-3.182,5.369,5.031,5.031,0,0,1-2.268.536A6.353,6.353,0,0,1,76.466,1173.865ZM52.058,1166.1a2.978,2.978,0,0,1,2.209-3.257,2.672,2.672,0,0,1,3.443,1.762,33.133,33.133,0,0,1,.9,5.129,8.463,8.463,0,0,1-2.4.382A3.8,3.8,0,0,1,52.058,1166.1Zm-30.5-3.027a3.328,3.328,0,0,1,3.084-3.6,3.547,3.547,0,0,1,3.449,3.662,3.492,3.492,0,0,1-3.055,3.68h-.049A3.842,3.842,0,0,1,21.559,1163.074Zm7.97-5.02a3.8,3.8,0,0,1,1.771-6.508c2.716-.635,4.658.845,6.2,2.843,1.423,1.835,2.821,3.792.829,6.544a9.96,9.96,0,0,1-1.576.127A10.95,10.95,0,0,1,29.529,1158.053Zm65.4-3.541c-1.076-1.229-1.257-3.4-.174-4.2a3.31,3.31,0,0,1,2.616-.482c1.574.505,2.011,2.387,1.5,5.183a2.662,2.662,0,0,1-1.734.755A3.065,3.065,0,0,1,94.932,1154.513Zm-28.457-.764c-2.456,0-4.261-2.236-4.228-5.251.032-2.624,1.657-4.495,3.853-4.432,2.358.07,4.151,2.641,4.1,5.883a3.624,3.624,0,0,1-3.679,3.8Zm-61.065-8.3a3.827,3.827,0,0,1,3.433-3.029,3.736,3.736,0,0,1,4.05,2.649,10.2,10.2,0,0,1-.382,7.746,6.373,6.373,0,0,1-.713.041C7.8,1152.853,4.554,1149.019,5.41,1145.447Zm-11.385-12.142a2.045,2.045,0,0,1-.025-.274v-.138a3.793,3.793,0,0,1,1.019-2.413,2.67,2.67,0,0,1,2.588-.112,3.381,3.381,0,0,1,.891,2.52,17.009,17.009,0,0,1-.776,3.465C-4.521,1136.14-5.7,1135.013-5.975,1133.305Zm35.467-3.48a4.414,4.414,0,0,1-4.4-4.339,3.283,3.283,0,0,1,3.407-3.245c2.058.132,3.8,2.291,3.771,4.667-.026,1.947-.932,2.908-2.752,2.916Zm42.176-2.26a11.413,11.413,0,0,1-2.2-4.554c-.148-.8.922-2.187,1.792-2.723a2.227,2.227,0,0,1,3.075,1.078,38.084,38.084,0,0,1,1.732,4.2c-.586.856-1,2.027-1.784,2.429a1.973,1.973,0,0,1-.849.158A2.467,2.467,0,0,1,71.668,1127.565Z" transform="translate(6 -1120.001)" fill="#a5d285"/>
</svg>
