<svg xmlns="http://www.w3.org/2000/svg" width="79" height="60" viewBox="0 0 79 60">
  <path id="Color_Overlay" data-name="Color Overlay" d="M368.843,1222.993a96.233,96.233,0,0,1-17.181-2.318,39.387,39.387,0,0,1-4.827-1.563,14.656,14.656,0,0,1-4.848-3.154,12.481,12.481,0,0,0-1.869-1.431,23.454,23.454,0,0,1-9.463-10.8,19.932,19.932,0,0,1-1.655-7.718v-.277a20,20,0,0,1,.734-5.172A29.223,29.223,0,0,1,339,1175.874a59.79,59.79,0,0,1,16.975-10.406A34.266,34.266,0,0,1,368.648,1163h.192a36.549,36.549,0,0,1,6.381.589A42.815,42.815,0,0,1,397.8,1174.7a35.125,35.125,0,0,1,8.119,11.58,23.779,23.779,0,0,1-8.736,29.731,40.533,40.533,0,0,1-12.9,5.442A55.446,55.446,0,0,1,370.06,1223C369.661,1223,369.257,1223,368.843,1222.993Zm9.736-3.212a4.177,4.177,0,0,0,2.416-.642c.2-.1.311-.363.458-.542-.141-.163-.191-.274-.261-.29-.377-.079-.762-.121-1.139-.2a2.51,2.51,0,0,0-.5-.057C378.677,1218.052,378.3,1218.661,378.58,1219.781Zm13.456-6.016c-.428.12-.858.239-1.279.383a2,2,0,0,0-1.265,2.494c1.42.337,3.851-.861,4.845-2.478l-.876-.771C392.9,1213.539,392.467,1213.646,392.036,1213.765Zm-8.853,1.472c.53.415,1.074.135,1.53-.124a2.766,2.766,0,0,0,1.423-1.2c-.1-.212-.205-.42-.319-.65-.1-.006-.206-.009-.3-.009C384.052,1213.251,383.268,1213.925,383.182,1215.238Zm13-2.876a3.088,3.088,0,0,0,2.886-1.613,1.184,1.184,0,0,0-.109-1.632,1.5,1.5,0,0,0-.255-.021A2.9,2.9,0,0,0,396.177,1212.361Zm-4.972-.6a3.744,3.744,0,0,0,2.806-1.44c.466-.506.448-.653-.065-1.282A2.81,2.81,0,0,0,391.206,1211.756Zm-8.6-2.1c-.646.27-.877.671-.865,1.562a2.944,2.944,0,0,0,3.053-1.337,1.365,1.365,0,0,0-1.059-.507A3,3,0,0,0,382.607,1209.652Zm6.038-2.12c1.186.142,2.6-.893,2.506-1.985-.088-.085-.26-.246-.445-.42C388.8,1206.021,388.46,1206.427,388.645,1207.532Zm8.837-1.379c-.07.3-.261.651.189.9a2.073,2.073,0,0,0,1.627-1.905c-.107-.134-.23-.3-.366-.457-.033-.038-.106-.04-.162-.058A2.65,2.65,0,0,0,397.482,1206.153Zm4.646-6.934c-.094.758-.783,1.47-.222,2.28.769.054.769.054,1.547-.555.158-1.335.114-1.487-.7-2.291h-.048A.562.562,0,0,0,402.128,1199.219Z" transform="translate(-329 -1163)" fill="#f37d4f"/>
</svg>
