<svg xmlns="http://www.w3.org/2000/svg" width="211.924" height="249.887" viewBox="0 0 211.924 249.887">
  <path id="Color_Overlay" data-name="Color Overlay" d="M136.871,1358.593l1.476-.266c-.21-.383-.365-.671-.454-.835,1.59-3.483,2.831-7.121,5.638-9.947.109-.885-.212-2.07,1.237-2.264.036-.625.063-1.1.09-1.58l.26.122c.678-1.312,1.328-2.64,2.042-3.932a27.49,27.49,0,0,1,2.546-4.288c1.857-2.257,2.925-4.931,4.385-7.394,1.208-2.038,2.669-3.928,4-5.894.61-.9,1.173-1.826,1.768-2.733,1.085-1.65,2.215-3.271,3.257-4.948.662-1.064,1.155-2.231,1.809-3.3,1.219-2,2.481-3.967,3.759-5.929,1.507-2.311,3.02-4.623,4.588-6.893,1.48-2.142,3.044-4.226,4.552-6.347,1.01-1.42,1.979-2.87,2.979-4.3,1.236-1.762,2.459-3.531,3.733-5.262,1.763-2.4,3.607-4.731,5.349-7.141a79.628,79.628,0,0,1,6.466-8.119,28.337,28.337,0,0,0,4.545-5.737c1.822-3.407,4.766-5.928,6.717-9.238,1.183-2.005,3.237-3.492,4.823-5.279,1.028-1.158,1.912-2.44,2.867-3.658,1.15-1.461,2.338-2.893,3.46-4.375a95.487,95.487,0,0,1,8.663-9.535c1.26-1.268,2.3-2.756,3.437-4.147,1.512-1.851,2.964-3.754,4.549-5.541,1.389-1.564,2.929-3,4.395-4.492.418-.427,1-.814,1.184-1.332.622-1.756,2-2.819,3.339-3.926.543-.446.765-.891.332-1.49.4-.087.968-.077,1.106-.314,1.293-2.212,3.82-3.228,5.15-5.434.544-.9,1.743-1.391,2.495-2.2a34.836,34.836,0,0,0,2.39-3.1,20.579,20.579,0,0,1,4.384-4.24,3.1,3.1,0,0,0,.827-.928c1.753-3.092,4.475-5.282,7.033-7.638,1.227-1.131,2.284-2.439,3.463-3.624,1.559-1.57,3.254-3.017,4.721-4.665,1.852-2.083,4.157-3.627,6.144-5.512,1.226-1.165,2.751-2.063,3.654-3.653a11.352,11.352,0,0,1,2.6-2.41c1.218-1.066,2.45-2.116,3.663-3.186a5.41,5.41,0,0,0,.851-.907,17.6,17.6,0,0,1,4.253-3.864c.972-.706,1.864-1.518,2.831-2.231,1.558-1.152,3.171-2.231,4.718-3.395,1.628-1.224,3.2-2.524,4.81-3.766,1-.768,2.03-1.484,3.19-2.327l1.446-.082.194.322c-.424.488-.759.887-1.122,1.26a71.105,71.105,0,0,1-7.787,6.918,59.378,59.378,0,0,0-8.753,8.24,39.836,39.836,0,0,1-4.191,3.67,32.624,32.624,0,0,0-4.365,4.206,25.454,25.454,0,0,1-4.218,3.886c-3.379,2.669-5.9,6.118-8.743,9.276-.663.736-1.419,1.39-2.1,2.107-1.606,1.688-3.194,3.394-4.792,5.089-2.992,3.176-5.976,6.366-8.99,9.524-1.653,1.728-3.376,3.394-5.046,5.107-.458.47-.826,1.028-1.271,1.513-1.246,1.356-2.526,2.679-3.761,4.046-2.446,2.7-4.854,5.441-7.312,8.131-2.184,2.387-4.639,4.564-6.583,7.127-2.766,3.645-6.124,6.725-9.114,10.148a27.76,27.76,0,0,0-3.415,4.354c-.841,1.464-2.363,2.525-3.483,3.852-2.162,2.561-4.223,5.208-6.381,7.776-1.193,1.415-2.558,2.686-3.73,4.115-1.552,1.893-2.975,3.89-4.482,5.821-2.762,3.539-5.519,7.084-8.336,10.579-.932,1.156-1.595,2.58-3.032,3.283-.866,2.316-2.805,3.855-4.225,5.77-1.391,1.879-2.893,3.681-4.236,5.594-1.65,2.349-3.145,4.806-4.783,7.161-1.264,1.817-2.628,3.568-3.979,5.323a62.071,62.071,0,0,0-5.441,7.718c-.4.721-1.106,1.268-1.549,1.973-1.691,2.681-3.265,5.436-5.009,8.079-1.561,2.363-3.345,4.581-4.919,6.937-.891,1.332-1.537,2.823-2.33,4.221a8.461,8.461,0,0,1-1.463,2.243c-1.745,1.54-2.415,3.733-3.67,5.561-1.211,1.769-2.43,3.532-3.631,5.307-.5.739-.99,1.492-1.442,2.262-1.4,2.368-2.819,4.719-4.141,7.124-1.642,2.989-3.168,6.042-4.807,9.032a5.348,5.348,0,0,1-1.071,1.58l-.653.393a2.675,2.675,0,0,1-.555.147C136.064,1360.8,136.436,1359.787,136.871,1358.593Zm-11.211-21.208c.347.405.564.659.677.792-.606,3.2-2.46,5.522-4.6,7.694C122.567,1342.948,124.34,1340.442,125.66,1337.386Zm16.965,3.454a10.534,10.534,0,0,1,.59-1.783c.1-.186.592-.164.941-.246-1.02,2.01-1.978,3.9-3.034,5.98A4.028,4.028,0,0,1,142.625,1340.84Zm-39.44,2.647-.414-.687c-.436-1.48.464-4.388,2.158-6.383l1.135.6c-.562,1.894-1.128,3.8-1.748,5.9l-.977.678A1.024,1.024,0,0,1,103.185,1343.487Zm15.657-2.545a33.187,33.187,0,0,1,2.341-4.013c1.339-1.744,1.818-3.828,2.711-5.747.924-1.99,2.021-3.9,3.085-5.818.666-1.2,1.457-2.332,2.111-3.537,1.432-2.635,2.763-5.326,4.233-7.941,1.168-2.08,2.477-4.082,3.728-6.114.437-.71.891-1.407,1.328-2.116,1.157-1.888,2.342-3.759,3.45-5.678,1.045-1.81,2.1-3.627,2.964-5.526a22.391,22.391,0,0,1,2.216-2.981c1.085-1.648,2.037-3.387,3.083-5.062.636-1.015,1.393-1.956,2.012-2.982a30.394,30.394,0,0,0,2.231-4.07c.368-.9,1.235-1.217,1.7-2.066a57.893,57.893,0,0,1,4.028-5.634c.627-.872,1.135-1.829,1.745-2.714,2.348-3.4,4.721-6.781,7.07-10.177.807-1.163,1.525-2.393,2.379-3.52,1.227-1.618,2.565-3.153,3.81-4.756,1.027-1.324,1.988-2.7,2.974-4.054,1.321-1.823,2.287-3.878,3.974-5.474.887-.833,1.31-2.132,2.064-3.13,1.9-2.517,3.869-4.976,5.8-7.467,1.5-1.932,2.967-3.89,4.474-5.816,1.434-1.829,2.875-3.652,4.365-5.435,2.061-2.464,4.167-4.892,6.264-7.327,2.185-2.539,4.388-5.062,6.575-7.6q2.985-3.463,5.941-6.952c1.258-1.493,2.471-3.026,3.707-4.539.829-1.015,1.616-2.072,2.512-3.026,1.392-1.485,2.889-2.869,4.289-4.347,2.175-2.293,4.6-4.332,6.465-6.943a18.886,18.886,0,0,1,4.19-4.406c1.445-1.036,2.075-2.64,3.4-3.7,1.068-.86,1.987-1.9,3-2.833,1.178-1.084,2.327-2.209,3.6-3.176,1.831-1.4,3.118-3.411,4.882-4.729,2.87-2.144,4.96-5.164,7.982-6.992,3.3-2,5.655-5.033,8.8-7.2,2.949-2.031,5.5-4.633,8.267-6.936.723-.6,1.623-.984,2.4-1.526,1.337-.928,2.648-1.9,3.963-2.86.5-.369.973-.795,1.493-1.138,3-1.988,5.97-4.035,9.049-5.9a26.577,26.577,0,0,1,4.018-1.526c.8-.318,1.568-.732,2.349-1.1l.237.351a8.911,8.911,0,0,1-1.436,1.152,64.682,64.682,0,0,0-10.062,6.795,33.152,33.152,0,0,1-4.15,2.916,31.249,31.249,0,0,0-5.59,4.549c-1.6,1.449-3.4,2.673-5.081,4.041s-3.289,2.79-4.944,4.172c-2.563,2.141-5.17,4.233-7.7,6.412a31.006,31.006,0,0,0-3.3,3.29,82.337,82.337,0,0,1-8.613,8.149c-1.486,1.3-2.78,2.809-4.171,4.215-2.737,2.765-5.514,5.493-8.211,8.3-1.74,1.807-3.34,3.748-5.055,5.579-1.679,1.788-3.465,3.473-5.128,5.275-1.925,2.082-3.75,4.255-5.648,6.364-2.321,2.582-4.621,5.185-7.031,7.682a27.433,27.433,0,0,0-2.891,3.649,38.774,38.774,0,0,1-2.763,3.058c-1.325,1.543-2.472,3.263-3.928,4.665a77.147,77.147,0,0,0-6.222,7.373c-2.595,3.207-5.051,6.522-7.6,9.772-.51.653-1.214,1.158-1.71,1.822-2.759,3.683-5.452,7.417-8.234,11.084-1.877,2.473-3.869,4.856-5.792,7.3a27.072,27.072,0,0,0-1.67,2.345,54.905,54.905,0,0,1-5.008,6.73c-1.879,2.171-3.425,4.628-5.09,6.98s-3.293,4.712-4.9,7.092c-.437.644-.69,1.41-1.131,2.049-2.271,3.3-4.576,6.566-6.872,9.845-.449.638-.925,1.257-1.358,1.9-1.192,1.78-2.393,3.554-3.537,5.365-.444.7-.681,1.536-1.12,2.245q-3.619,5.882-7.3,11.727c-1.489,2.375-3.076,4.69-4.494,7.1s-2.682,4.939-4.04,7.4c-.518.937-1.139,1.816-1.678,2.745-1.925,3.325-3.788,6.69-5.779,9.979-.553.913-.781,2.012-1.309,2.778a37.112,37.112,0,0,0-2.02,3.741c-.329,0-.629,0-1.4,0C118.408,1341.8,118.607,1341.36,118.842,1340.942Zm7.576-4.049a16.662,16.662,0,0,1,.919-2.845,98.278,98.278,0,0,1,5.123-9.106c1.29-1.907,2.071-4.031,3.264-5.96,1.64-2.65,3.147-5.379,4.765-8.045,1.271-2.093,2.678-4.1,3.921-6.211,1.215-2.066,2.259-4.234,3.453-6.315.8-1.4,1.73-2.732,2.621-4.084.821-1.244,1.677-2.467,2.507-3.7,1.178-1.762,2.36-3.523,3.516-5.3.477-.732.846-1.531,1.335-2.254,3-4.441,6-8.887,9.049-13.293,1.6-2.318,3.35-4.541,4.972-6.847.752-1.069,1.269-2.307,2.054-3.349,1.654-2.2,3.391-4.33,5.136-6.456a49.339,49.339,0,0,0,4.24-5.963c1.281-2.14,2.932-4.06,4.416-6.079.951-1.3,1.849-2.638,2.849-3.9,1.643-2.057,3.387-4.034,5.02-6.1,2.192-2.764,4.3-5.6,6.486-8.365,1-1.268,2.111-2.45,3.178-3.668q2.421-2.765,4.846-5.528,1.774-2.029,3.539-4.067c.942-1.08,1.9-2.145,2.825-3.242q2.763-3.279,5.49-6.592c.453-.544.832-1.153,1.318-1.662,1.314-1.381,2.669-2.724,4.371-4.451.193-1.514,1.777-2.634,3.193-3.955a77.787,77.787,0,0,0,5.872-6.052,55.6,55.6,0,0,1,6.871-7.1c.141-.114.352-.2.416-.344,1.234-2.828,4.142-4.111,5.943-6.414.438-.561.964-1.054,1.529-1.662,1.372-.062,2.073-1.3,2.98-2.218.789-.8,1.453-1.727,2.272-2.487,1.786-1.656,3.682-3.191,5.449-4.864,2.575-2.436,5.581-4.344,8.107-6.863,2.068-2.066,4.6-3.667,6.87-5.541,1.433-1.182,2.69-2.579,4.154-3.717,1.753-1.364,3.661-2.526,5.467-3.827,1.212-.873,2.33-1.875,3.546-2.741.9-.64,1.918-1.108,2.825-1.735,1.224-.845,2.389-1.775,3.586-2.66a7.614,7.614,0,0,1,4.354-1.422c-.646,1.706-2.087,2.683-3.477,3.7q-3.506,2.555-7.056,5.047a4.618,4.618,0,0,1-1.189.488c-2.446,2.168-4.687,4.154-6.92,6.145-.94.835-1.841,1.721-2.807,2.526-1.384,1.154-2.848,2.216-4.213,3.391-1.577,1.355-3.074,2.807-4.631,4.187-.762.677-1.648,1.224-2.373,1.935-3.709,3.635-7.374,7.314-11.073,10.96-4.618,4.55-9.314,9.025-13.856,13.65-2.086,2.123-3.848,4.558-5.836,6.781-.872.977-1.97,1.752-2.918,2.667-.858.828-1.664,1.707-2.466,2.588q-1.806,1.989-3.577,4.01c-1.678,1.915-3.315,3.867-5.019,5.761-1.359,1.508-2.81,2.937-4.189,4.428-.725.784-1.381,1.634-2.08,2.446-.857.995-1.728,1.976-2.591,2.963-.12.137-.237.274-.354.412-2.088,2.449-4.2,4.876-6.257,7.35-1.831,2.2-3.577,4.472-5.4,6.674-2.919,3.519-5.89,6.995-8.8,10.52-.648.786-1.078,1.743-1.695,2.559q-4.579,6.037-9.2,12.035c-2.09,2.714-4.239,5.382-6.3,8.117-1.362,1.813-2.589,3.725-3.917,5.562-.806,1.114-1.721,2.15-2.53,3.263-.915,1.256-1.75,2.569-2.643,3.84-1,1.421-2.035,2.813-3.035,4.232a11.958,11.958,0,0,0-1.136,1.808,16.6,16.6,0,0,1-2.006,3.126c-1.687,2.207-3.174,4.565-4.775,6.841-.446.634-1.061,1.155-1.483,1.8-1.818,2.8-3.628,5.618-5.376,8.466-1.283,2.089-2.368,4.3-3.717,6.344-2.1,3.188-4.385,6.26-6.525,9.425a32.84,32.84,0,0,0-1.66,3.155c-.73,1.377-1.474,2.748-2.287,4.257-.21.105-.578.293-.921.467-.982,3.431-3.43,5.95-5.294,9.424-.589,1.208-1.42,2.9-2.4,4.908Zm19.891-3.083c1.49-2.633,3-5.26,4.575-7.841,1.613-2.641,3.324-5.224,4.989-7.834,1.114-1.747,2.238-3.487,3.329-5.248.845-1.364,1.635-2.762,2.463-4.136.98-1.628,1.914-3.29,2.983-4.86,1.1-1.618,2.413-3.1,3.495-4.725,1.346-2.025,2.481-4.186,3.831-6.205,1.754-2.617,3.627-5.158,5.457-7.727,1.07-1.5,2.139-3.011,3.239-4.494,1.205-1.622,2.473-3.2,3.663-4.831,1.055-1.448,1.982-2.993,3.067-4.419,1.3-1.709,2.751-3.307,4.066-5.008,2.231-2.889,4.717-5.586,6.483-8.831a25.543,25.543,0,0,1,2.492-3.05c1.536-1.985,2.964-4.053,4.553-5.991,2.62-3.194,5.368-6.283,7.994-9.473,1.371-1.664,2.374-3.689,3.938-5.125,2.926-2.687,5.1-6,7.861-8.818,2.128-2.173,3.961-4.63,5.976-6.917,2.251-2.557,4.662-4.985,6.8-7.628a12.24,12.24,0,0,1,3.291-3.244,2.545,2.545,0,0,0,1.105-1.378c.759-2.747,3.339-3.82,5.072-5.665q.921-.981,1.853-1.952c2.61-2.723,5.234-5.433,7.825-8.175.531-.564.925-1.256,1.414-1.864a25.186,25.186,0,0,1,1.845-2.147c.638-.628,1.6-1.019,2.039-1.742,1.245-2.073,3.33-3.259,4.9-4.973.483-.526.891-1.124,1.391-1.633.833-.851,1.715-1.657,2.572-2.484,1.337-1.285,2.635-2.609,4.015-3.847,1.473-1.321,3.045-2.533,4.525-3.847,1.287-1.146,2.482-2.393,3.758-3.549,1.078-.974,2.216-1.883,3.326-2.822.365-.309.75-.6,1.084-.939,1.713-1.739,3.3-3.614,5.149-5.2a69.487,69.487,0,0,1,5.855-4.048,7.906,7.906,0,0,1,3.535-2.735,8.245,8.245,0,0,0,3.126-2.638,5.274,5.274,0,0,1,3.74-1.727c-.59.833-1,1.967-1.808,2.439-1.71,1-2.945,2.56-4.694,3.522a16.3,16.3,0,0,0-3.808,3.065c-2.884,3.022-6,5.8-8.928,8.785-1.8,1.832-3.9,3.367-5.785,5.124a79.558,79.558,0,0,0-8.725,8.778,57.1,57.1,0,0,1-5.088,5.049c-.682.671-1.361,1.35-2,2.067-1.143,1.294-2.234,2.633-3.379,3.923a7.9,7.9,0,0,1-1.346,1.193c-2.284,1.617-3.811,3.955-5.7,5.948-2.18,2.3-4.19,4.765-6.385,7.052a52.109,52.109,0,0,1-4.422,3.948,6.947,6.947,0,0,0-2.309,3.617,3.884,3.884,0,0,0-2.661,2.144,4.376,4.376,0,0,1-.842,1.162c-2.4,2.586-4.841,5.136-7.22,7.745-.923,1.014-1.669,2.191-2.587,3.21-2.6,2.887-5.246,5.734-7.877,8.591-.2.221-.5.381-.636.631a15.423,15.423,0,0,1-3.835,4.487c-1.774,1.462-2.758,3.558-4.184,5.3-1.59,1.945-3.249,3.832-4.848,5.768-1.251,1.515-2.448,3.073-3.69,4.6-.3.372-.724.644-1.017,1.02-2.269,2.923-4.508,5.87-6.783,8.787-.653.839-1.435,1.577-2.091,2.412-1.888,2.4-3.74,4.83-5.6,7.25-.33.428-.641.869-.97,1.3q-1.686,2.191-3.381,4.373c-.346.447-.732.868-1.074,1.319-2.422,3.187-4.876,6.351-7.236,9.584-1.44,1.976-2.558,4.206-4.127,6.061-2.054,2.432-3.514,5.268-5.6,7.659a2.943,2.943,0,0,0-.56.689c-.994,2.316-2.785,4.107-4.112,6.2-.113.179-.417.269-.478.451a20.594,20.594,0,0,1-2.943,5.288q-3.039,4.29-5.956,8.666a8.659,8.659,0,0,1-2.226,2.858c-.45.3-.562,1.119-.805,1.708-.23.552-.382,1.141-.652,1.669-.676,1.31-1.375,2.608-2.128,3.872-.149.253-.583.338-1.013.57a9.822,9.822,0,0,1-.956,1.938,5.3,5.3,0,0,1-1.939,1.406C145.157,1336.109,145.674,1334.927,146.309,1333.809Zm-40.808,1.557a21.93,21.93,0,0,1,2.667-6.157,34.871,34.871,0,0,0,2.056-4.382c.574-1.221,1.164-2.439,1.78-3.64.815-1.591,1.678-3.159,2.5-4.747,1.735-3.359,3.42-6.743,5.191-10.08.836-1.575,1.769-3.105,2.756-4.589,2.648-3.985,4.78-8.258,7.108-12.424,1.368-2.445,2.97-4.757,4.454-7.137.885-1.416,1.742-2.849,2.618-4.269,1.345-2.182,2.673-4.377,4.054-6.537q3.8-5.936,7.653-11.83c.988-1.5,2.131-2.905,3.132-4.4,1.327-1.984,2.528-4.055,3.891-6.016,1.533-2.206,3.216-4.306,4.774-6.495,1.6-2.244,3.111-4.547,4.679-6.813,1.085-1.567,2.2-3.109,3.3-4.668,2.1-2.989,4.137-6.025,6.309-8.96,2.032-2.744,4.221-5.372,6.3-8.078.827-1.076,1.52-2.256,2.35-3.331s1.772-2.092,2.657-3.14c1.237-1.468,2.456-2.946,3.695-4.414,2.121-2.516,4.27-5.015,6.37-7.548,3.138-3.78,6.215-7.614,9.382-11.369,1.347-1.594,2.9-3.019,4.3-4.57a15.916,15.916,0,0,0,1.958-2.571,20.357,20.357,0,0,1,4.117-4.486c1.363-1.251,2.567-2.673,3.841-4.019,2.137-2.26,4.282-4.513,6.412-6.781,1.308-1.394,2.522-2.885,3.9-4.2,1.776-1.693,3.774-3.161,5.5-4.9,1.788-1.807,4.021-3.055,5.736-4.982a40.938,40.938,0,0,1,5.323-4.566c2.546-2.022,5.182-3.93,7.723-5.958,1.971-1.572,3.853-3.255,5.778-4.883q.62-.524,1.261-1.02c1.517-1.182,3.024-2.38,4.564-3.531,1.406-1.048,2.814-2.1,4.289-3.044a73.137,73.137,0,0,0,6.239-3.829c3.175-2.514,6.809-4.249,10.16-6.453a7.949,7.949,0,0,1,3.046-1.012,32.39,32.39,0,0,0,4.514-1.532l.787.282.742,1.231c-1.5-.345-2.22.615-2.914,1.689a2.982,2.982,0,0,0-3.174,1.159,7.308,7.308,0,0,1-2.659,1.687,36.575,36.575,0,0,0-5.4,3.274c-2.469,1.983-5.436,3.267-7.6,5.677a22.361,22.361,0,0,1-3.467,2.6c-3,2.228-6.062,4.38-8.979,6.711-2.691,2.15-5.225,4.493-7.831,6.748-2.221,1.925-4.55,3.738-6.64,5.792-3.925,3.862-8.171,7.381-12.02,11.325-2.467,2.526-5.2,4.79-7.663,7.323-1.7,1.751-3.044,3.828-4.687,5.635-1.245,1.368-2.724,2.524-4.07,3.8-.818.779-1.6,1.6-2.369,2.428q-1.59,1.7-3.135,3.44c-.433.49-.8,1.037-1.2,1.56-.462.611-.882,1.256-1.385,1.832-1.334,1.535-2.695,3.046-4.059,4.554-1.324,1.465-2.692,2.893-3.992,4.38-.621.711-1.091,1.55-1.69,2.282q-2.438,3-4.937,5.94c-.493.58-1.141,1.031-1.638,1.609-.808.94-1.527,1.957-2.326,2.906s-1.686,1.85-2.487,2.81a30.8,30.8,0,0,0-2.3,2.948,123.93,123.93,0,0,1-8.733,11.395c-2.367,2.862-4.433,5.973-6.6,9-1.666,2.33-3.236,4.732-4.93,7.042-.881,1.2-2.044,2.2-2.9,3.421-2.833,4.019-5.561,8.113-8.374,12.146-2.256,3.236-4.623,6.4-6.852,9.654-.872,1.273-1.454,2.74-2.258,4.064a16.751,16.751,0,0,1-1.717,1.989c-.266,1.416-1.638,2.515-2.569,3.9-1.693,2.521-3.266,5.123-4.919,7.673-1.488,2.293-3.028,4.555-4.511,6.854-.256.394-.28.936-.518,1.346-1.05,1.81-2.147,3.593-3.21,5.4-.417.7-.788,1.436-1.17,2.161a4.85,4.85,0,0,1-.179.49c-1.173,1.712-2.452,3.361-3.506,5.141a47.512,47.512,0,0,0-2.6,4.553,37.449,37.449,0,0,1-2.35,4.621c-1.327,2.117-2.387,4.408-3.807,6.456a25.128,25.128,0,0,0-3.457,7c-.093.3-.441.519-.612.812a13.672,13.672,0,0,0-1.72,3.132,7.472,7.472,0,0,1-1.409,2.624,15.743,15.743,0,0,0-1.227,2.383C106.24,1336.376,105.906,1335.918,105.5,1335.366Zm14.414-10.5.646.709-2.536,4.136a2.054,2.054,0,0,1-1.483,2.614c-.1.9-.17,1.8-1.74,1.9C117.543,1331.467,117.77,1327.767,119.916,1324.862Zm23.376-4.9c.151.518.383.875.284,1.045-.808,1.423-1.677,2.814-2.546,4.2-.056.092-.268.083-.553.157C141.418,1323.562,142.282,1321.9,143.292,1319.963Zm-22.621,3.188c1.536-2.291,2.446-4.931,3.926-7.219,1.593-2.462,2.45-5.253,3.977-7.718.626-1.011,1.276-2.005,1.92-3,1.194-1.855,2.46-3.671,3.569-5.575,1.02-1.749,1.893-3.585,2.8-5.4.613-1.225,1.11-2.507,1.769-3.7a11.1,11.1,0,0,1,1.746-2.445,30.266,30.266,0,0,0,2.468-3.264,47.77,47.77,0,0,0,3.757-6.125c.817-1.524,1.248-3.287,2.534-4.513,2.061-1.965,3.251-4.55,4.974-6.758a36.08,36.08,0,0,0,3.737-5.719c.12-.233.428-.362.623-.562.4-.414.789-.844,1.265-1.356l-1.368-.874c2.175.118,1.767-2.449,3.551-2.677-.3-.439-.485-.7-.511-.743,1.485-1.824,2.9-3.559,4.35-5.342-.266-.274-.508-.521-.787-.8.174-.276.349-.554.581-.925.093.377.155.637.244.995,2.378-.946,3.159-3.218,4.7-5.082l-1.525.048c.03.3.049.505.073.712l-1.447.547c1.312-2.659,4.2-4.206,5.4-7.5.049.643.068.9.085,1.139,1.613-.652,2.785-3.066,1.97-4.507l3.4-2.676c.041.055.082.11.122.166.723-1.078,1.444-2.157,2.218-3.313l-.958-.405,3.43-4.621c2.794-3.123,5.557-6.26,7.175-10.156,2.152-.176,2.662-1.991,3.635-3.271a15.789,15.789,0,0,1,3.236-3.794,3.282,3.282,0,0,0,.821-.938,28.765,28.765,0,0,1,4.369-5.224,27.248,27.248,0,0,0,2.515-3.472,13.28,13.28,0,0,1,1.261-1.265c.706-.713,1.729-1.319,2.035-2.178.388-1.092,1.514-1.211,2.02-2.211.778-1.542,2.189-2.764,3.394-4.2l1.056.734c.491-.792.981-1.581,1.575-2.534l-.99-.04a17.287,17.287,0,0,0,3.949-4.854,2.721,2.721,0,0,1,2.04-1.621c.557-.083,1.047-.87,1.485-1.407.322-.4.412-1,.769-1.339,1.878-1.791,3.825-3.511,5.713-5.293a7.5,7.5,0,0,0,1.552-2.071c.113-.385.106-.909.362-1.128.6-.506,1.573-.709,1.952-1.312,1.237-1.963,3.3-3.051,4.76-4.773a7.4,7.4,0,0,1,3.253-2.722.649.649,0,0,0,.325-.37c.624-1.649,2.431-2.094,3.445-3.356.233-.285.845-.266,1.219-.371l2.473-2.989.3.786,1.709-.61c-.022-.449-.044-.911-.068-1.468l2.256-1.354c.009-.363.019-.625.024-.784l2.394-1.435c-.019-.123-.046-.3-.073-.482l.967,0-.325.522c.09.074.183.147.272.22a47.817,47.817,0,0,0,4.448-3.268A45.152,45.152,0,0,1,267.79,1138a1.893,1.893,0,0,0,.556-.464c.1-.131.082-.349.174-.821-.9.3-1.643.551-2.632.882.747-.62,1.283-1.066,1.867-1.552l1.748.074c7.6-5.79,15.552-10.553,23.509-15.407.495.08.994.158,1.488.237.036.121.07.24.106.363-1.554,1.02-3.116,2.028-4.658,3.063a11.057,11.057,0,0,0-2.4,2.039c-.535.062-1.071.122-1.476.167-2.3,1.824-3.857,4.376-6.877,5.278.264.23.386.339.511.446l-1.165.7c-1.57,1.5-2.775,2.828-4.159,3.2-2.677,1.947-4.151,4.7-7.074,5.541l-5.845,5.461c.154-.328.229-.49.436-.924l-1.557.683c.021.463.04.859.062,1.327-2.584,1.1-4.065,3.318-5.885,5.53-1.434.015-2.313,1.354-3.031,2.478a17.055,17.055,0,0,1-2.917,2.869c-1.535,1.5-3.135,2.942-4.725,4.388-1.194,1.084-2.415,2.139-3.629,3.2a6.357,6.357,0,0,0-1.1.922,45.349,45.349,0,0,1-5.827,6.313,61.277,61.277,0,0,0-5.321,6.276,7.239,7.239,0,0,1-2.741,2.386,7.114,7.114,0,0,0-3.31,3.419,6.229,6.229,0,0,1-2.947,2.964c-1.969,2.57-3.779,4.933-5.1,6.658a36.338,36.338,0,0,0-7.347,8.554,5.35,5.35,0,0,0-1.32.819c-1.419,1.619-2.791,3.284-4.157,4.951a97.293,97.293,0,0,1-7.516,8.7,21.64,21.64,0,0,0-2.507,3.659,60.127,60.127,0,0,1-6.863,8.764,18.508,18.508,0,0,0-1.2,1.8c-.559.723-.789,1.688-1.944,1.977-.455.113-.692,1.1-1.218,2.012l-.331.088c-1.033,1.354-1.985,2.5-2.831,3.724-1.454,2.1-2.8,4.278-4.27,6.362-1.762,2.486-3.586,4.927-5.443,7.339-.557.724-1.706,1.188-1.912,1.951-.548,2.027-2.011,3.391-3.181,5.044-1.33.349-1.33.349-2.143,1.876.159.231.338.494.578.84-1.687.483-1.816,2.108-2.491,2.992l-2.139,1.535c.1.058.207.113.311.169a5.321,5.321,0,0,1-.473,1.662c-1.261,1.8-2.637,3.514-3.927,5.295-.545.752-.944,1.607-1.479,2.366a11.879,11.879,0,0,1-1.265,1.3c-.039,1.244-1.128,1.965-2.09,2.732.168.836.206,1.42-.744,1.927-.665.356-.99,1.346-1.546,2.169l-.574.091a5.929,5.929,0,0,1-.114,1.029c-.435,1.516-1.668,2.542-2.422,3.867a14.752,14.752,0,0,1-1.795,2.832,3.173,3.173,0,0,0-1.12,2.387c-.879,1.4-1.661,2.741-2.553,4.01a15.213,15.213,0,0,1-1.749,1.778c-.544,1.157-1.169,2.489-2.02,4.3a22.6,22.6,0,0,0-3.119,4.467,11.534,11.534,0,0,0-1.386,1.8c-.96,1.92-1.735,3.931-2.742,5.821-.7,1.317-1.705,2.47-2.495,3.745a14.672,14.672,0,0,0-.9,2.07C120.409,1324.317,120.259,1323.764,120.671,1323.151Zm27.017-9.051a6.267,6.267,0,0,1-2.816,3.562A5.507,5.507,0,0,1,147.688,1314.1Zm.849-2.681c1.489-2.231,2.926-4.5,4.514-6.955.107.437.324.8.221.976-1.131,1.972-2.307,3.916-3.482,5.86-.333.55-.71,1.075-1.128,1.706C148.1,1312.509,148.127,1312.035,148.537,1311.419Zm7.311-11.981c2.9-3.613,5.128-7.664,7.585-11.558.474-.753,1.055-1.429,1.523-2.184.971-1.573,1.993-3.12,3.074-4.62,2.065-2.858,4.232-5.643,6.265-8.522,1.966-2.783,3.785-5.667,5.731-8.464.817-1.176,1.779-2.253,2.7-3.353a69.633,69.633,0,0,0,6.775-9.041,48.369,48.369,0,0,1,3.278-4.267c1.4-1.856,2.755-3.75,4.171-5.6.833-1.09,1.764-2.11,2.623-3.182,2.5-3.123,4.927-6.3,7.491-9.369,2.689-3.213,5.508-6.317,8.264-9.473.866-.992,1.7-2.011,2.571-3,2.9-3.265,5.82-6.507,8.7-9.791.709-.809,1.2-1.814,1.931-2.6a37.567,37.567,0,0,1,3.562-3.789c1.43-1.169,2.3-3.014,3.652-4.89a11.089,11.089,0,0,0,3.726-3.093c1.4-1.557,2.711-3.187,4.13-4.722,1.867-2.022,3.808-3.976,5.7-5.976.861-.913,1.624-1.923,2.525-2.793,2.83-2.732,5.727-5.394,8.552-8.131,2.106-2.041,4.064-4.237,6.23-6.211,1.792-1.632,3.826-2.994,5.688-4.553,1.839-1.54,3.6-3.174,5.389-4.772,1.876-1.676,3.76-3.345,5.621-5.042.751-.683,1.391-1.5,2.182-2.129,1.189-.951,2.473-1.779,3.705-2.678,2.016-1.471,4-2.983,6.046-4.423a3.244,3.244,0,0,1,1.982-.489,18.4,18.4,0,0,1-3.677,2.809,7.446,7.446,0,0,0-2.114,1.539c-1.754,1.627-3.333,3.446-5.084,5.075-1.669,1.551-3.474,2.955-5.213,4.43-1.784,1.515-3.571,3.026-5.336,4.561-1.4,1.217-2.818,2.426-4.154,3.712s-2.569,2.642-3.839,3.98c-.2.216-.306.562-.544.712-2.249,1.432-3.534,3.725-5.266,5.756a3.013,3.013,0,0,0-2.518,1.657,21.609,21.609,0,0,1-1.764,2.461c-.188.23-.626.252-.966.374-.272.652-.545,1.31-.871,2.091l-1.169-.091c-1.2,1.26-2.463,2.576-3.7,3.914-1.7,1.832-3.27,3.79-5.088,5.49a22.573,22.573,0,0,0-4.2,5.1c-.167.286-.587.417-.863.652-.613.524-1.21,1.066-1.893,1.674-2.128,1.215-3.174,3.459-4.648,5.4-.059-.035-.237-.146-.517-.319-.246.39-.5.778-.737,1.173-.3.495-.467,1.148-.893,1.465a17.162,17.162,0,0,0-3.937,4.375,11.978,11.978,0,0,1-3.092,3.227c-1.959,1.313-2.792,3.422-4.216,5.1-.286.336-.659.6-.97.912-.595.6-1.212,1.184-1.752,1.832-.714.853-1.36,1.759-2.152,2.8a19.872,19.872,0,0,0-4.84,5.56c-.544.586-1.091,1.17-1.633,1.758-.887.963-1.808,1.9-2.647,2.9a21.869,21.869,0,0,0-1.4,2.069,18.492,18.492,0,0,1-1.345,2.076c-2.384,2.751-5.1,5.225-7,8.385a8.553,8.553,0,0,1-1.4,1.386,3.965,3.965,0,0,0-1.426,2.469c-.244.062-.522.13-.7.175a13.84,13.84,0,0,1-1.444,2.257,22.038,22.038,0,0,0-3.3,4.554,18.161,18.161,0,0,1-1.885,2.156,23.571,23.571,0,0,0-2.634,3.594c-.625,1.2-1.9,1.66-2.537,2.849a34.551,34.551,0,0,1-3.05,4.291c-1.478,1.96-3.056,3.847-4.474,5.847-2.551,3.6-5.341,7.032-7.456,10.927a21.351,21.351,0,0,1-1.716,2.522c-.15.2-.493.26-.829.427-.14.488-.309,1.071-.477,1.653-.069-.051-.139-.1-.208-.153-1.327,1.823-2.678,3.631-3.977,5.473-1.094,1.554-2.1,3.172-3.212,4.712a1.884,1.884,0,0,1-1.48.53A10.574,10.574,0,0,1,155.848,1299.438Zm23.953-62.507c.01,0,.011,0,0,0Zm64.82-28.382.005,0,.036.048-.058.014Zm53.922-69.015a3.55,3.55,0,0,1,.595-.9c1.149-.905,2.2-2.013,3.675-2.355l.252.374-4.225,3.162C298.741,1139.725,298.639,1139.63,298.542,1139.535Zm2.582-9.657,2.246-1.73c.709,1.526-.778,1.58-1.182,2.425Zm-.058.038c.007-.02.015-.04.023-.061l.035.023-.049.038Z" transform="translate(-102.662 -1112.004)" fill="#fbb093"/>
</svg>
