<svg xmlns="http://www.w3.org/2000/svg" width="185.796" height="188.779" viewBox="0 0 185.796 188.779">
  <path id="Color_Overlay" data-name="Color Overlay" d="M1585.231,3773.464a89.9,89.9,0,0,1-33.315-25.561c-9.854-12.205-17.763-25.492-21.964-40.529l-1.991-8.9a84.194,84.194,0,0,1-1.124-15.3c.3-16.077,3.765-31.688,11.247-45.928,15.619-29.73,40.513-44.9,74.492-44.065a122.113,122.113,0,0,1,37.006,6.955c29.047,10.072,47.578,29.447,56.806,54.244l5.513,24.65c2.02,18.577-.157,35.032-7.371,50.964a87.649,87.649,0,0,1-56.608,48.654l-8.952,2a90.078,90.078,0,0,1-15.125,1.277A93.291,93.291,0,0,1,1585.231,3773.464Zm76.89-39.715c-1.511,3.133-3.007,6.222-4.613,9.543l.748,3.326c1.028-.329,1.645-.338,1.957-.653,2.69-2.708,5.438-5.377,7.911-8.276.644-.759.39-2.281.5-3.1a5,5,0,0,0-3.528-1.59A7.717,7.717,0,0,0,1662.121,3733.749Zm17.9-.7c1.205-.453,2.455-.526,2.932-1.165a32.262,32.262,0,0,0,5.846-12.091l-5.177-1.119C1681.762,3723.677,1678.493,3727.481,1680.022,3733.048Zm-8.51-16.049c.481,1.707.035,4.041,2.6,4.565,4.714-2.372,6.916-7.107,5.153-12.056l-6.018-.141A7.487,7.487,0,0,0,1671.512,3717Zm15.2-49.194c1.117,3.265,1,6.786,3.066,10.253,3.134-3.767,3.578-7.864,4.3-11.748-1.633-1.171-2.8-1.786-3.782-1.786C1689.011,3664.523,1688.031,3665.574,1686.712,3667.8Z" transform="translate(-1526.823 -3593.148)" fill="#f37d4f"/>
</svg>
