<svg id="Vector_Smart_Object" data-name="Vector Smart Object" xmlns="http://www.w3.org/2000/svg" xmlns:xlink="http://www.w3.org/1999/xlink" width="74" height="123" viewBox="0 0 74 123">
  <defs>
    <clipPath id="clip-path">
      <rect id="Rectangle_274" data-name="Rectangle 274" width="74" height="123" transform="translate(0 0)" fill="none"/>
    </clipPath>
  </defs>
  <g id="Group_549" data-name="Group 549">
    <g id="Group_548" data-name="Group 548" clip-path="url(#clip-path)">
      <path id="Path_846" data-name="Path 846" d="M28.606,44a2.878,2.878,0,0,1,4.573-.776,14.166,14.166,0,0,1,1.593,1.841c1.071,1.39,2.141,2.781,3.154,4.213,1.44,2.034.672,4.831-.561,6.469a3.107,3.107,0,0,1-.868.553A6.477,6.477,0,0,1,33.4,53.515c-1.637-3.175-3.221-6.377-4.8-9.514" fill="#30314d"/>
      <path id="Path_847" data-name="Path 847" d="M55.883,74.652q.278,6.338-2.636,7.482c-2.725-1.411-3.707-4.078-4.659-6.722a42.917,42.917,0,0,1-1.139-4.3c-.118-.482-.157-.984-.22-1.389a2.4,2.4,0,0,1,2.84-.261,12.821,12.821,0,0,1,4.469,3.546c.449.513.865,1.055,1.345,1.643" fill="#30314d"/>
      <path id="Path_848" data-name="Path 848" d="M44.4,91.109c-2.917-2.315-4.075-5.732-5.079-9.22a1.6,1.6,0,0,1,.481-1.881,3.19,3.19,0,0,1,2.786-.464,6.207,6.207,0,0,1,2.365,1.91,13.48,13.48,0,0,0,1.538,1.727,3.494,3.494,0,0,1,1.057,3.953,21.186,21.186,0,0,1-1.23,3.2c-.309.715-.893,1.01-1.917.776" fill="#30314d"/>
      <path id="Path_849" data-name="Path 849" d="M70.927,123c-2.648-1.571-3.4-4.308-4.6-6.731a21.68,21.68,0,0,1-1.133-3.247,8.436,8.436,0,0,1-.2-1.4,3.016,3.016,0,0,1,4.1.3c1.443,1.216,2.813,2.522,4.176,3.829A3,3,0,0,1,73.8,118.9a23.443,23.443,0,0,1-1.216,3.2c-.257.611-.788.862-1.659.9" fill="#30314d"/>
      <path id="Path_850" data-name="Path 850" d="M22.534,31.643,21.5,31.7c-2.007-1.112-2.751-3.073-3.552-4.934-.855-1.986-1.516-4.058-2.3-6.2l.437-.79c1.924-.592,3.158.567,4.3,1.581a22.3,22.3,0,0,1,3,3.487,4.213,4.213,0,0,1,.365,4.024c-.321.958-.8,1.86-1.211,2.782" fill="#30314d"/>
      <path id="Path_851" data-name="Path 851" d="M32.741,104.134a2.06,2.06,0,0,1,2.42.572c1.684,1.828,3.367,3.66,4.967,5.561a3.54,3.54,0,0,1,.581,1.776,7.247,7.247,0,0,1-.594,3.888c-.437.993-.559,1.107-1.707,1.093-1.767-1.007-2.453-2.815-3.212-4.511-.868-1.938-1.558-3.957-2.3-5.951a3.309,3.309,0,0,1-.155-2.427" fill="#30314d"/>
      <path id="Path_852" data-name="Path 852" d="M6.5,17.985a3.58,3.58,0,0,1-3.2-1.811A22.542,22.542,0,0,1,0,8.877a1.938,1.938,0,0,1,2.741-.916,37.89,37.89,0,0,1,4.071,2.851,3.32,3.32,0,0,1,.8,1.679A6.639,6.639,0,0,1,6.5,17.985" fill="#30314d"/>
      <path id="Path_853" data-name="Path 853" d="M22.034,10.893a4.581,4.581,0,0,1-1.286-.571,8.43,8.43,0,0,1-1.584-1.833C18,6.5,16.917,4.466,15.828,2.435a16.807,16.807,0,0,1-.665-1.6L16.288,0c3.151.831,5,3.451,7.342,5.093a6.9,6.9,0,0,1-1.6,5.8" fill="#30314d"/>
      <path id="Path_854" data-name="Path 854" d="M23.085,65.645c.72.814,1.371,1.6,2.081,2.335A18.288,18.288,0,0,0,26.8,69.406a2.036,2.036,0,0,1,.764,2.182,25.428,25.428,0,0,1-1.289,3.318c-.1.23-.44.355-.645.509-2.471-1.286-4.466-6.044-3.983-9.576l1.434-.195" fill="#30314d"/>
      <path id="Path_855" data-name="Path 855" d="M30.768,32.577c.937-1.2,2.163-1.389,3.2-.467.829.737,1.575,1.567,2.358,2.358a.694.694,0,0,1,.086.095c.846,1.16.589,4.047-.521,5.174a3.373,3.373,0,0,1-2.548-1.567,19.384,19.384,0,0,1-2.574-5.592" fill="#30314d"/>
    </g>
  </g>
</svg>
