<svg xmlns="http://www.w3.org/2000/svg" xmlns:xlink="http://www.w3.org/1999/xlink" width="74" height="123" viewBox="0 0 74 123">
  <defs>
    <clipPath id="clip-path">
      <rect id="Rectangle_280" data-name="Rectangle 280" width="74" height="123" transform="translate(0 0)" fill="none"/>
    </clipPath>
  </defs>
  <g id="Vector_Smart_Object_copy_10" data-name="Vector Smart Object copy 10" transform="translate(-51 -4280)">
    <g id="Vector_Smart_Object_copy_10-2" data-name="Vector Smart Object copy 10" transform="translate(51 4280)">
      <g id="Group_561" data-name="Group 561">
        <g id="Group_560" data-name="Group 560" clip-path="url(#clip-path)">
          <path id="Path_879" data-name="Path 879" d="M28.606,44a2.878,2.878,0,0,1,4.573-.776,14.166,14.166,0,0,1,1.593,1.841c1.071,1.39,2.141,2.781,3.154,4.213,1.44,2.034.672,4.831-.561,6.469a3.107,3.107,0,0,1-.868.553A6.477,6.477,0,0,1,33.4,53.515c-1.637-3.175-3.221-6.377-4.8-9.514" fill="#30314d"/>
          <path id="Path_880" data-name="Path 880" d="M55.883,74.652q.278,6.338-2.636,7.482c-2.725-1.411-3.707-4.078-4.659-6.722a42.917,42.917,0,0,1-1.139-4.3c-.118-.482-.157-.984-.22-1.389a2.4,2.4,0,0,1,2.84-.261,12.821,12.821,0,0,1,4.469,3.546c.449.513.865,1.055,1.345,1.643" fill="#30314d"/>
          <path id="Path_881" data-name="Path 881" d="M44.4,91.109c-2.917-2.315-4.075-5.732-5.079-9.22a1.6,1.6,0,0,1,.481-1.881,3.19,3.19,0,0,1,2.786-.464,6.207,6.207,0,0,1,2.365,1.91,13.48,13.48,0,0,0,1.538,1.727,3.494,3.494,0,0,1,1.057,3.953,21.186,21.186,0,0,1-1.23,3.2c-.309.715-.893,1.01-1.917.776" fill="#30314d"/>
          <path id="Path_882" data-name="Path 882" d="M70.927,123c-2.648-1.571-3.4-4.308-4.6-6.731a21.68,21.68,0,0,1-1.133-3.247,8.436,8.436,0,0,1-.2-1.4,3.016,3.016,0,0,1,4.1.3c1.443,1.216,2.813,2.522,4.176,3.829A3,3,0,0,1,73.8,118.9a23.443,23.443,0,0,1-1.216,3.2c-.257.611-.788.862-1.659.9" fill="#30314d"/>
          <path id="Path_883" data-name="Path 883" d="M22.534,31.643,21.5,31.7c-2.007-1.112-2.751-3.073-3.552-4.934-.855-1.986-1.516-4.058-2.3-6.2l.437-.79c1.924-.592,3.158.567,4.3,1.581a22.3,22.3,0,0,1,3,3.487,4.213,4.213,0,0,1,.365,4.024c-.321.958-.8,1.86-1.211,2.782" fill="#30314d"/>
          <path id="Path_884" data-name="Path 884" d="M32.741,104.134a2.06,2.06,0,0,1,2.42.572c1.684,1.828,3.367,3.66,4.967,5.561a3.54,3.54,0,0,1,.581,1.776,7.247,7.247,0,0,1-.594,3.888c-.437.993-.559,1.107-1.707,1.093-1.767-1.007-2.453-2.815-3.212-4.511-.868-1.938-1.558-3.957-2.3-5.951a3.309,3.309,0,0,1-.155-2.427" fill="#30314d"/>
          <path id="Path_885" data-name="Path 885" d="M6.5,17.985a3.58,3.58,0,0,1-3.2-1.811A22.542,22.542,0,0,1,0,8.877a1.938,1.938,0,0,1,2.741-.916,37.89,37.89,0,0,1,4.071,2.851,3.32,3.32,0,0,1,.8,1.679A6.639,6.639,0,0,1,6.5,17.985" fill="#30314d"/>
          <path id="Path_886" data-name="Path 886" d="M22.034,10.893a4.581,4.581,0,0,1-1.286-.571,8.43,8.43,0,0,1-1.584-1.833C18,6.5,16.917,4.466,15.828,2.435a16.807,16.807,0,0,1-.665-1.6L16.288,0c3.151.831,5,3.451,7.342,5.093a6.9,6.9,0,0,1-1.6,5.8" fill="#30314d"/>
          <path id="Path_887" data-name="Path 887" d="M23.085,65.645c.72.814,1.371,1.6,2.081,2.335A18.288,18.288,0,0,0,26.8,69.406a2.036,2.036,0,0,1,.764,2.182,25.428,25.428,0,0,1-1.289,3.318c-.1.23-.44.355-.645.509-2.471-1.286-4.466-6.044-3.983-9.576l1.434-.195" fill="#30314d"/>
          <path id="Path_888" data-name="Path 888" d="M30.768,32.577c.937-1.2,2.163-1.389,3.2-.467.829.737,1.575,1.567,2.358,2.358a.694.694,0,0,1,.086.095c.846,1.16.589,4.047-.521,5.174a3.373,3.373,0,0,1-2.548-1.567,19.384,19.384,0,0,1-2.574-5.592" fill="#30314d"/>
        </g>
      </g>
    </g>
    <path id="Color_Overlay" data-name="Color Overlay" d="M117.331,4396.269a21.65,21.65,0,0,1-1.133-3.247,8.439,8.439,0,0,1-.2-1.4,3.016,3.016,0,0,1,4.1.3c1.444,1.217,2.813,2.523,4.176,3.83a3.005,3.005,0,0,1,.536,3.14,23.3,23.3,0,0,1-1.217,3.2c-.256.611-.788.862-1.659.9C119.279,4401.428,118.522,4398.692,117.331,4396.269Zm-27.924.753c-1.767-1.006-2.452-2.815-3.212-4.509-.869-1.939-1.558-3.958-2.3-5.952a3.314,3.314,0,0,1-.155-2.428,2.061,2.061,0,0,1,2.42.572c1.683,1.828,3.367,3.659,4.967,5.561a3.547,3.547,0,0,1,.58,1.777,7.237,7.237,0,0,1-.594,3.886c-.414.945-.545,1.094-1.545,1.094Zm5.988-25.914c-2.917-2.315-4.075-5.732-5.08-9.22a1.6,1.6,0,0,1,.482-1.88,3.186,3.186,0,0,1,2.786-.463,6.212,6.212,0,0,1,2.365,1.91,13.452,13.452,0,0,0,1.538,1.726,3.494,3.494,0,0,1,1.056,3.954,21.154,21.154,0,0,1-1.23,3.2,1.291,1.291,0,0,1-1.288.854A2.819,2.819,0,0,1,95.4,4371.109Zm4.192-15.7a42.785,42.785,0,0,1-1.139-4.3c-.118-.48-.157-.983-.219-1.388a2.393,2.393,0,0,1,2.839-.261,12.8,12.8,0,0,1,4.47,3.546c.449.513.866,1.054,1.345,1.642q.278,6.338-2.637,7.482C101.523,4360.723,100.539,4358.056,99.588,4355.413Zm-26.937-9.573,1.434-.194c.719.814,1.37,1.6,2.081,2.334a18.3,18.3,0,0,0,1.637,1.427,2.034,2.034,0,0,1,.765,2.181,25.47,25.47,0,0,1-1.288,3.318c-.1.23-.44.355-.645.509C74.164,4354.129,72.168,4349.373,72.651,4345.84ZM84.4,4333.516c-1.637-3.175-3.221-6.377-4.8-9.514a2.879,2.879,0,0,1,4.573-.777,14.382,14.382,0,0,1,1.593,1.841c1.071,1.389,2.14,2.782,3.153,4.213,1.441,2.035.673,4.832-.56,6.469a3.057,3.057,0,0,1-.869.554A6.477,6.477,0,0,1,84.4,4333.516Zm-.063-15.346a19.388,19.388,0,0,1-2.574-5.593c.937-1.2,2.162-1.388,3.2-.466.83.737,1.577,1.568,2.358,2.358a.7.7,0,0,1,.087.094c.845,1.16.588,4.048-.523,5.175A3.374,3.374,0,0,1,84.342,4318.169Zm-15.4-11.408c-.855-1.986-1.516-4.058-2.3-6.2.13-.238.311-.562.436-.79,1.924-.592,3.158.566,4.3,1.581a22.294,22.294,0,0,1,3,3.486,4.216,4.216,0,0,1,.365,4.024c-.32.957-.8,1.858-1.212,2.781l-1.038.052C70.491,4310.584,69.746,4308.622,68.945,4306.761ZM54.3,4296.174a22.541,22.541,0,0,1-3.3-7.3,1.939,1.939,0,0,1,2.74-.916,37.865,37.865,0,0,1,4.071,2.851,3.321,3.321,0,0,1,.8,1.679,6.641,6.641,0,0,1-1.114,5.5c-.063,0-.125,0-.186,0A3.624,3.624,0,0,1,54.3,4296.174Zm17.447-5.853a8.471,8.471,0,0,1-1.585-1.833c-1.164-1.987-2.246-4.022-3.335-6.053a16.684,16.684,0,0,1-.665-1.6l1.124-.833h0c3.148.831,4.994,3.452,7.338,5.092a6.89,6.89,0,0,1-1.6,5.8A4.556,4.556,0,0,1,71.748,4290.322Z" fill="#f67f51"/>
  </g>
</svg>
