<svg xmlns="http://www.w3.org/2000/svg" width="34.053" height="34.6" viewBox="0 0 34.053 34.6">
  <path id="Color_Overlay" data-name="Color Overlay" d="M671.118,4542.243a16.479,16.479,0,0,1-6.107-4.685,20.782,20.782,0,0,1-4.023-7.419l-.368-1.649a15.472,15.472,0,0,1-.205-2.8,18.69,18.69,0,0,1,2.062-8.419c2.862-5.447,7.426-8.23,13.653-8.076a22.323,22.323,0,0,1,6.782,1.275,16.3,16.3,0,0,1,10.411,9.94l1.011,4.521a17.333,17.333,0,0,1-1.351,9.338,16.067,16.067,0,0,1-10.382,8.92l-1.628.365a16.537,16.537,0,0,1-2.778.235A17.1,17.1,0,0,1,671.118,4542.243Zm14.092-7.28c-.277.575-.551,1.14-.846,1.749l.137.609c.189-.059.3-.062.359-.119.493-.5,1-.985,1.451-1.518.119-.139.072-.417.091-.567a.922.922,0,0,0-.648-.292A1.4,1.4,0,0,0,685.21,4534.963Zm3.281-.128c.22-.083.449-.1.537-.214a5.932,5.932,0,0,0,1.072-2.216l-.95-.205C688.809,4533.118,688.21,4533.814,688.491,4534.835Zm-1.56-2.942c.088.313.007.74.476.837a1.747,1.747,0,0,0,.945-2.21l-1.1-.026A1.375,1.375,0,0,0,686.931,4531.893Zm2.786-9.017a8.321,8.321,0,0,0,.562,1.879,4.227,4.227,0,0,0,.789-2.153,1.349,1.349,0,0,0-.693-.327C690.138,4522.275,689.958,4522.467,689.717,4522.876Z" transform="translate(-660.412 -4509.193)" fill="#3db166"/>
</svg>
