<svg xmlns="http://www.w3.org/2000/svg" width="34.053" height="34.6" viewBox="0 0 34.053 34.6">
  <path id="Color_Overlay" data-name="Color Overlay" d="M671.117,4617.242a16.481,16.481,0,0,1-6.105-4.686,20.759,20.759,0,0,1-4.027-7.43l-.364-1.631a15.389,15.389,0,0,1-.206-2.8,18.692,18.692,0,0,1,2.061-8.418c2.863-5.449,7.426-8.229,13.654-8.076a22.389,22.389,0,0,1,6.782,1.275,16.306,16.306,0,0,1,10.412,9.941l1.011,4.521a17.34,17.34,0,0,1-1.352,9.34,16.059,16.059,0,0,1-10.379,8.917l-1.631.365a16.541,16.541,0,0,1-2.779.235A17.1,17.1,0,0,1,671.117,4617.242Zm14.093-7.28-.846,1.75.137.611c.189-.062.3-.063.359-.121.494-.5,1-.985,1.45-1.516.118-.139.071-.42.09-.569a.917.917,0,0,0-.646-.291A1.428,1.428,0,0,0,685.21,4609.962Zm3.282-.128c.22-.083.449-.1.537-.213a5.907,5.907,0,0,0,1.071-2.216l-.949-.2C688.809,4608.117,688.21,4608.815,688.492,4609.834Zm-1.56-2.941c.088.313.006.741.475.837a1.746,1.746,0,0,0,.945-2.21l-1.1-.024A1.37,1.37,0,0,0,686.931,4606.893Zm2.785-9.017a8.311,8.311,0,0,0,.562,1.88,4.241,4.241,0,0,0,.788-2.152,1.334,1.334,0,0,0-.693-.328C690.139,4597.275,689.958,4597.468,689.717,4597.876Z" transform="translate(-660.412 -4584.193)" fill="#f37d4f"/>
</svg>
